<?xml version="1.0" encoding="utf-8"?>
<!-- Generator: Adobe Illustrator 24.1.2, SVG Export Plug-In . SVG Version: 6.00 Build 0)  -->
<svg version="1.1" id="Layer_1" xmlns="http://www.w3.org/2000/svg" xmlns:xlink="http://www.w3.org/1999/xlink" x="0px" y="0px"
	 viewBox="0 0 456.08 374.9" style="enable-background:new 0 0 456.08 374.9;" xml:space="preserve">
<style type="text/css">
	.st0{display:none;}
	.st1{display:inline;fill:#008AFF;}
	.st2{clip-path:url(#SVGID_2_);}
	.st3{fill:none;stroke:#F0F0F0;stroke-width:2.5421;stroke-miterlimit:10;stroke-dasharray:8.3613,8.3613;}
	.st4{display:none;fill:#416FF8;}
	.st5{display:none;fill:none;stroke:#3660F6;stroke-width:2.9457;stroke-miterlimit:10;}
	.st6{fill:#0048EA;}
	.st7{display:none;fill:#E9B955;}
	.st8{fill:#B6D7FF;}
	.st9{opacity:0.1;enable-background:new    ;}
	.st10{fill:#0047C6;}
	.st11{fill:#E3F1FF;}
	.st12{opacity:0.1;}
	.st13{fill:#9FC2FF;}
	.st14{fill:#407AFF;}
	.st15{opacity:0.1;fill:#FFFFFF;enable-background:new    ;}
	.st16{fill:#FFC82E;}
	.st17{opacity:0.2;fill:#FFFFFF;enable-background:new    ;}
	.st18{fill:#789BF4;}
	.st19{fill:#FFFFFF;}
	.st20{fill:#F3F3F3;}
	.st21{fill:#3185FF;}
	.st22{fill:#0047C4;}
	.st23{fill:#CCE1FF;}
	.st24{fill:#6C96D8;}
	.st25{fill:#E9B955;}
	.st26{display:none;fill:#F3F3F3;}
	.st27{display:none;fill:#FFFFFF;}
	.st28{display:inline;}
	.st29{fill:#DCC0AC;}
	.st30{fill:#30353F;}
	.st31{fill:#DE5A7D;}
	.st32{fill:#CAA896;}
	.st33{fill:#40435B;}
	.st34{fill:#423854;}
	.st35{fill:#2D3B5C;}
	.st36{opacity:0.44;fill:#C6C6C6;enable-background:new    ;}
	.st37{display:inline;fill:#78C875;}
	.st38{display:inline;fill:#615768;}
	.st39{display:inline;opacity:0.44;fill:#C6C6C6;enable-background:new    ;}
	.st40{display:inline;fill:#222222;}
	.st41{display:inline;fill:#DCC0AC;}
	.st42{display:inline;fill:#817889;}
	.st43{display:inline;opacity:0.7;fill:#E0E0E0;enable-background:new    ;}
	.st44{fill:#889FFF;}
	.st45{fill:#5078D3;}
	.st46{display:none;fill:#6DACF8;}
	.st47{fill:#EEF7FF;}
	.st48{display:inline;fill:#6DACF8;}
	.st49{enable-background:new    ;}
	.st50{fill:#85B1FF;}
	.st51{fill:#1C2028;}
	.st52{fill:#0036AD;}
	.st53{opacity:0.2;enable-background:new    ;}
	.st54{fill:#EAB021;}
	.st55{fill:#E89C23;}
	.st56{fill:none;stroke:#FFC82E;stroke-miterlimit:10;}
	.st57{fill:none;stroke:#FFC82E;stroke-miterlimit:10;stroke-dasharray:3.8538,3.8538,3.8538,3.8538;}
	.st58{fill:none;stroke:#FFC82E;stroke-miterlimit:10;stroke-dasharray:3.8538,3.8538,3.8538,3.8538,3.8538,3.8538;}
	.st59{fill:none;}
	.st60{fill:#AAD4C8;}
	.st61{clip-path:url(#SVGID_4_);}
	.st62{fill:#213A7E;}
	.st63{fill:#DF6170;}
	.st64{fill:#E5BCA9;}
	.st65{fill:#2C6ACE;}
</style>
<g id="BACKGROUND" class="st0">
	<rect class="st1" width="456.08" height="374.9"/>
</g>
<g id="OBJECTS">
	<g>
		<g>
			<g>
				<defs>
					<rect id="SVGID_1_" x="56.95" y="45.82" width="328.34" height="269.91"/>
				</defs>
				<clipPath id="SVGID_2_">
					<use xlink:href="#SVGID_1_"  style="overflow:visible;"/>
				</clipPath>
				<g class="st2">
					<circle class="st3" cx="217.83" cy="200.25" r="138.39"/>
				</g>
			</g>
		</g>
		<rect x="272.39" y="291.65" class="st4" width="81.1" height="43.18"/>
		<rect x="40.31" y="280.02" class="st4" width="81.1" height="54.81"/>
		<line class="st5" x1="405.99" y1="334.07" x2="23.86" y2="334.07"/>
		<g>
			<path class="st6" d="M63.97,153.48c0,13.97,11.32,25.29,25.29,25.29c13.96,0,25.29-11.32,25.29-25.29s-11.32-25.29-25.29-25.29
				C75.29,128.19,63.97,139.51,63.97,153.48z"/>
			<path class="st7" d="M83.65,143.48c5.14,0,5.52,3.14,5.52,3.14s0.38-3.14,5.52-3.14s6.95,5.9,5.62,9.43
				c-1.33,3.52-11.14,12.48-11.14,12.48s-9.81-8.95-11.14-12.48C76.7,149.39,78.51,143.48,83.65,143.48z"/>
		</g>
		<g>
			<g>
				<rect x="380.46" y="283.67" class="st8" width="60.68" height="5.48"/>
				<rect x="380.46" y="283.67" class="st9" width="60.68" height="0.79"/>
			</g>
			<g>
				<path class="st10" d="M449.22,260.05v19.74c0,2.14-1.73,3.87-3.87,3.87h-69.09c-2.13,0-3.87-1.73-3.87-3.87v-19.74
					c0-2.14,1.74-3.87,3.87-3.87h69.09C447.49,256.18,449.22,257.91,449.22,260.05z"/>
				<rect x="377.79" y="259.86" class="st11" width="65.16" height="19.89"/>
				<rect x="377.79" y="279.75" class="st9" width="65.16" height="0.77"/>
				<g class="st12">
					<path d="M426.17,270.25c0,1.18-0.96,2.14-2.14,2.14c-1.18,0-2.14-0.96-2.14-2.14c0-1.18,0.96-2.14,2.14-2.14
						C425.21,268.11,426.17,269.07,426.17,270.25z"/>
					<path d="M432.5,270.25c0,1.18-0.96,2.14-2.14,2.14s-2.14-0.96-2.14-2.14c0-1.18,0.96-2.14,2.14-2.14S432.5,269.07,432.5,270.25
						z"/>
					<path d="M439.15,270.25c0,1.18-0.96,2.14-2.14,2.14c-1.18,0-2.14-0.96-2.14-2.14c0-1.18,0.96-2.14,2.14-2.14
						C438.2,268.11,439.15,269.07,439.15,270.25z"/>
				</g>
				<rect x="380.03" y="266.6" class="st13" width="29.67" height="0.88"/>
				<rect x="380.03" y="269.12" class="st13" width="29.67" height="0.88"/>
				<rect x="380.03" y="271.5" class="st13" width="29.67" height="0.88"/>
				<rect x="380.03" y="274.02" class="st13" width="29.67" height="0.88"/>
				<g>
					<path class="st14" d="M426.17,269.81c0,1.18-0.96,2.14-2.14,2.14c-1.18,0-2.14-0.96-2.14-2.14c0-1.18,0.96-2.14,2.14-2.14
						C425.21,267.67,426.17,268.63,426.17,269.81z"/>
					<path class="st15" d="M425.52,269.81c0,0.82-0.67,1.49-1.49,1.49c-0.82,0-1.49-0.67-1.49-1.49c0-0.82,0.67-1.49,1.49-1.49
						C424.85,268.32,425.52,268.98,425.52,269.81z"/>
					<path class="st16" d="M432.5,269.81c0,1.18-0.96,2.14-2.14,2.14s-2.14-0.96-2.14-2.14c0-1.18,0.96-2.14,2.14-2.14
						S432.5,268.63,432.5,269.81z"/>
					<path class="st14" d="M439.15,269.81c0,1.18-0.96,2.14-2.14,2.14c-1.18,0-2.14-0.96-2.14-2.14c0-1.18,0.96-2.14,2.14-2.14
						C438.2,267.67,439.15,268.63,439.15,269.81z"/>
					<path class="st17" d="M431.86,269.81c0,0.82-0.67,1.49-1.49,1.49s-1.49-0.67-1.49-1.49c0-0.82,0.67-1.49,1.49-1.49
						S431.86,268.98,431.86,269.81z"/>
					<circle class="st15" cx="437.02" cy="269.81" r="1.49"/>
				</g>
			</g>
			<g>
				<path class="st10" d="M449.22,293.03v19.74c0,2.14-1.73,3.87-3.87,3.87h-69.09c-2.13,0-3.87-1.73-3.87-3.87v-19.74
					c0-2.14,1.74-3.87,3.87-3.87h69.09C447.49,289.15,449.22,290.88,449.22,293.03z"/>
				<rect x="377.79" y="292.83" class="st11" width="65.16" height="19.89"/>
				<rect x="377.79" y="312.73" class="st9" width="65.16" height="0.77"/>
				<g class="st12">
					<path d="M426.17,303.22c0,1.18-0.96,2.14-2.14,2.14c-1.18,0-2.14-0.96-2.14-2.14c0-1.18,0.96-2.14,2.14-2.14
						C425.21,301.08,426.17,302.04,426.17,303.22z"/>
					<path d="M432.5,303.22c0,1.18-0.96,2.14-2.14,2.14s-2.14-0.96-2.14-2.14c0-1.18,0.96-2.14,2.14-2.14S432.5,302.04,432.5,303.22
						z"/>
					<path d="M439.15,303.22c0,1.18-0.96,2.14-2.14,2.14c-1.18,0-2.14-0.96-2.14-2.14c0-1.18,0.96-2.14,2.14-2.14
						C438.2,301.08,439.15,302.04,439.15,303.22z"/>
				</g>
				<rect x="380.03" y="299.57" class="st13" width="29.67" height="0.88"/>
				<rect x="380.03" y="302.09" class="st13" width="29.67" height="0.88"/>
				<rect x="380.03" y="304.47" class="st13" width="29.67" height="0.88"/>
				<rect x="380.03" y="306.99" class="st13" width="29.67" height="0.88"/>
				<g>
					<path class="st14" d="M426.17,302.78c0,1.18-0.96,2.14-2.14,2.14c-1.18,0-2.14-0.96-2.14-2.14s0.96-2.14,2.14-2.14
						C425.21,300.64,426.17,301.6,426.17,302.78z"/>
					<path class="st15" d="M425.52,302.78c0,0.82-0.67,1.49-1.49,1.49c-0.82,0-1.49-0.67-1.49-1.49c0-0.82,0.67-1.49,1.49-1.49
						C424.85,301.29,425.52,301.96,425.52,302.78z"/>
					<path class="st16" d="M432.5,302.78c0,1.18-0.96,2.14-2.14,2.14s-2.14-0.96-2.14-2.14s0.96-2.14,2.14-2.14
						S432.5,301.6,432.5,302.78z"/>
					<circle class="st14" cx="437.02" cy="302.78" r="2.14"/>
					<path class="st17" d="M431.86,302.78c0,0.82-0.67,1.49-1.49,1.49s-1.49-0.67-1.49-1.49c0-0.82,0.67-1.49,1.49-1.49
						S431.86,301.96,431.86,302.78z"/>
					<path class="st15" d="M438.51,302.78c0,0.82-0.67,1.49-1.49,1.49c-0.82,0-1.49-0.67-1.49-1.49c0-0.82,0.67-1.49,1.49-1.49
						S438.51,301.96,438.51,302.78z"/>
				</g>
			</g>
			<g>
				<rect x="380.46" y="316.59" class="st18" width="60.68" height="5.48"/>
				<rect x="380.46" y="316.59" class="st9" width="60.68" height="0.79"/>
			</g>
			<g>
				<path class="st10" d="M449.22,325.94v19.74c0,2.14-1.73,3.87-3.87,3.87h-69.09c-2.13,0-3.87-1.73-3.87-3.87v-19.74
					c0-2.14,1.74-3.87,3.87-3.87h69.09C447.49,322.07,449.22,323.8,449.22,325.94z"/>
				<rect x="377.79" y="325.75" class="st11" width="65.16" height="19.89"/>
				<rect x="377.79" y="345.64" class="st9" width="65.16" height="0.77"/>
				<g class="st12">
					<path d="M426.17,336.14c0,1.18-0.96,2.14-2.14,2.14c-1.18,0-2.14-0.96-2.14-2.14s0.96-2.14,2.14-2.14
						C425.21,334,426.17,334.96,426.17,336.14z"/>
					<path d="M432.5,336.14c0,1.18-0.96,2.14-2.14,2.14s-2.14-0.96-2.14-2.14s0.96-2.14,2.14-2.14S432.5,334.96,432.5,336.14z"/>
					<circle cx="437.02" cy="336.14" r="2.14"/>
				</g>
				<rect x="380.03" y="332.49" class="st13" width="29.67" height="0.88"/>
				<rect x="380.03" y="335.01" class="st13" width="29.67" height="0.88"/>
				<rect x="380.03" y="337.39" class="st13" width="29.67" height="0.88"/>
				<rect x="380.03" y="339.91" class="st13" width="29.67" height="0.88"/>
				<g>
					<path class="st14" d="M426.17,335.7c0,1.18-0.96,2.14-2.14,2.14c-1.18,0-2.14-0.96-2.14-2.14s0.96-2.14,2.14-2.14
						C425.21,333.56,426.17,334.51,426.17,335.7z"/>
					<path class="st15" d="M425.52,335.7c0,0.82-0.67,1.49-1.49,1.49c-0.82,0-1.49-0.67-1.49-1.49c0-0.82,0.67-1.49,1.49-1.49
						C424.85,334.21,425.52,334.87,425.52,335.7z"/>
					<path class="st16" d="M432.5,335.7c0,1.18-0.96,2.14-2.14,2.14s-2.14-0.96-2.14-2.14s0.96-2.14,2.14-2.14
						S432.5,334.51,432.5,335.7z"/>
					<circle class="st14" cx="437.02" cy="335.7" r="2.14"/>
					<path class="st17" d="M431.86,335.7c0,0.82-0.67,1.49-1.49,1.49s-1.49-0.67-1.49-1.49c0-0.82,0.67-1.49,1.49-1.49
						S431.86,334.87,431.86,335.7z"/>
					<circle class="st15" cx="437.02" cy="335.7" r="1.49"/>
				</g>
			</g>
		</g>
		<g>
			<g>
				<path class="st19" d="M156.73,63.45c-0.23-1.44-0.39-2.91-0.39-4.42c0-15.15,12.28-27.44,27.44-27.44
					c0.14,0,0.28,0.02,0.42,0.02c6.99-13.21,20.86-22.23,36.85-22.23c23.02,0,41.67,18.66,41.67,41.67c0,0.9-0.08,1.78-0.13,2.67
					c10.54,3.83,18.08,13.9,18.08,25.77c0,15.15-12.28,27.44-27.44,27.44H169.2c-13,0-23.54-10.54-23.54-23.54
					C145.66,74.98,150.09,67.61,156.73,63.45z"/>
				<path class="st20" d="M253.23,106.93H169.2c-13,0-23.54-10.54-23.54-23.54c0-8.41,4.43-15.78,11.07-19.94
					c-0.23-1.44-0.39-2.91-0.39-4.42c0-15.15,12.28-27.44,27.44-27.44c0.14,0,0.28,0.02,0.42,0.02c0.01-0.02,0.02-0.03,0.03-0.05
					l74.75,74.75C257.12,106.71,255.2,106.93,253.23,106.93z"/>
			</g>
			<g>
				<g>
					<path class="st21" d="M205.57,80.99c0,4.24,3.44,7.67,7.68,7.67c4.24,0,7.68-3.44,7.68-7.67c0-4.24-3.44-7.68-7.68-7.68
						C209.01,73.31,205.57,76.75,205.57,80.99z"/>
				</g>
				<g>
					<path class="st21" d="M183.38,60.9c0.69,0,1.36-0.31,1.8-0.9c6.71-8.96,16.94-14.1,28.06-14.1s21.35,5.14,28.06,14.1
						c0.75,0.99,2.16,1.2,3.15,0.45c1-0.75,1.2-2.16,0.45-3.15c-7.57-10.11-19.11-15.9-31.66-15.9c-12.56,0-24.1,5.79-31.67,15.9
						c-0.75,0.99-0.54,2.4,0.45,3.15C182.44,60.76,182.91,60.9,183.38,60.9z"/>
				</g>
				<g>
					<path class="st21" d="M191.21,68.79c0.73,0,1.45-0.36,1.88-1.02c4.49-6.83,12.02-10.91,20.15-10.91
						c8.13,0,15.66,4.08,20.15,10.91c0.68,1.04,2.08,1.34,3.12,0.65c1.04-0.68,1.33-2.08,0.65-3.12
						c-5.33-8.11-14.27-12.94-23.91-12.94c-9.65,0-18.59,4.84-23.91,12.94c-0.68,1.04-0.39,2.44,0.65,3.12
						C190.36,68.67,190.79,68.79,191.21,68.79z"/>
				</g>
				<g>
					<path class="st21" d="M227.62,76.5c0.32,0,0.65-0.07,0.96-0.22c1.12-0.53,1.61-1.87,1.08-2.99
						c-2.99-6.36-9.43-10.47-16.41-10.47c-6.98,0-13.42,4.11-16.41,10.47c-0.53,1.13-0.05,2.47,1.08,2.99
						c1.13,0.53,2.46,0.04,3-1.08c2.25-4.79,7.09-7.89,12.34-7.89c5.24,0,10.08,3.09,12.33,7.89
						C225.96,76.02,226.77,76.5,227.62,76.5z"/>
				</g>
			</g>
		</g>
		<g>
			<path class="st22" d="M89.87,344.89h251.25V212.6c0-3.07-2.49-5.56-5.56-5.56H95.43c-3.07,0-5.56,2.49-5.56,5.56V344.89z"/>
			<path class="st23" d="M81.57,359.47h267.84c3.16,0,5.73-2.56,5.73-5.73v-8.85H75.85v8.85C75.85,356.9,78.41,359.47,81.57,359.47z
				"/>
			<path class="st24" d="M248.13,344.89l-2.94,2.83c-1.17,1.12-2.72,1.75-4.34,1.75H189.7c-1.8,0-3.52-0.78-4.71-2.13l-2.14-2.44
				L248.13,344.89L248.13,344.89z"/>
			<rect x="99.22" y="216.15" class="st19" width="232.55" height="120.85"/>
		</g>
		<g>
			<path class="st25" d="M224.73,331.27h73.24c0.89,0,1.61-0.72,1.61-1.61v-27.05c0-0.89-0.72-1.61-1.61-1.61h-73.24
				c-0.89,0-1.61,0.72-1.61,1.61v27.05C223.12,330.55,223.84,331.27,224.73,331.27z"/>
			<path class="st19" d="M271.74,324.93h17.44c1.45,0,2.63-1.18,2.63-2.63v-11.48c0-1.45-1.18-2.63-2.63-2.63h-17.44
				c-1.45,0-2.63,1.18-2.63,2.63v11.48C269.11,323.75,270.29,324.93,271.74,324.93z"/>
			<g>
				<path class="st19" d="M232.59,313.23h26.65c0.82,0,1.48-0.77,1.48-1.71l0,0c0-0.95-0.66-1.71-1.48-1.71h-26.65
					c-0.82,0-1.48,0.77-1.48,1.71l0,0C231.11,312.46,231.78,313.23,232.59,313.23z"/>
				<path class="st19" d="M251.16,323.26h8.03c0.84,0,1.53-0.68,1.53-1.53v-0.38c0-0.84-0.68-1.53-1.53-1.53h-8.03
					c-0.84,0-1.53,0.68-1.53,1.53v0.38C249.64,322.57,250.32,323.26,251.16,323.26z"/>
			</g>
		</g>
		<path class="st26" d="M131.41,305.05h75.9c1.19,0,2.15-0.96,2.15-2.15v-42.77c0-1.19-0.96-2.15-2.15-2.15h-75.9
			c-1.19,0-2.15,0.96-2.15,2.15v42.77C129.26,304.09,130.23,305.05,131.41,305.05z"/>
		<g>
			<path class="st6" d="M316.9,152.78c0,13.97,11.32,25.29,25.29,25.29c13.96,0,25.29-11.32,25.29-25.29s-11.32-25.29-25.29-25.29
				C328.23,127.49,316.9,138.81,316.9,152.78z"/>
			<path class="st27" d="M332.08,150.12h2.18c0.17-0.6,0.41-1.17,0.7-1.71l-1.54-1.54c-0.42-0.42-0.42-1.11,0-1.54l1.83-1.83
				c0.42-0.42,1.11-0.42,1.54,0l1.54,1.54c0.54-0.3,1.11-0.53,1.71-0.7v-2.18c0-0.6,0.49-1.09,1.09-1.09h2.58
				c0.6,0,1.09,0.49,1.09,1.09v2.18c0.6,0.17,1.17,0.41,1.71,0.7l1.54-1.54c0.42-0.42,1.11-0.42,1.54,0l1.83,1.83
				c0.42,0.42,0.42,1.11,0,1.54l-1.54,1.54c0.29,0.54,0.53,1.11,0.7,1.71h2.18c0.6,0,1.09,0.49,1.09,1.09v2.58
				c0,0.6-0.49,1.09-1.09,1.09h-2.18c-0.17,0.6-0.41,1.17-0.7,1.71l1.54,1.54c0.42,0.43,0.42,1.11,0,1.54l-1.83,1.83
				c-0.42,0.43-1.11,0.43-1.54,0l-1.54-1.54c-0.54,0.29-1.11,0.53-1.71,0.7v2.18c0,0.6-0.49,1.09-1.09,1.09h-2.58
				c-0.6,0-1.09-0.49-1.09-1.09v-2.18c-0.6-0.17-1.17-0.41-1.71-0.7l-1.54,1.54c-0.42,0.43-1.11,0.43-1.54,0l-1.83-1.83
				c-0.42-0.42-0.42-1.11,0-1.54l1.54-1.54c-0.29-0.54-0.53-1.11-0.7-1.71h-2.18c-0.6,0-1.09-0.49-1.09-1.09v-2.58
				C330.99,150.61,331.48,150.12,332.08,150.12z M342.41,157.06c2.52,0,4.56-2.04,4.56-4.56s-2.04-4.56-4.56-4.56
				s-4.56,2.04-4.56,4.56S339.89,157.06,342.41,157.06z"/>
			<path class="st19" d="M342.19,139.47c-7.34,0-13.31,5.97-13.31,13.31s5.97,13.31,13.31,13.31s13.31-5.97,13.31-13.31
				S349.53,139.47,342.19,139.47z M353.67,151.88h-4.03c-0.14-3.97-1.22-7.42-2.86-9.66C350.6,143.89,353.34,147.55,353.67,151.88z
				 M341.29,141.41v10.47h-4.76C336.74,146.65,338.77,142.26,341.29,141.41z M341.29,153.67v10.47c-2.53-0.85-4.56-5.23-4.76-10.47
				H341.29z M343.09,164.14v-10.47h4.77C347.64,158.91,345.61,163.29,343.09,164.14z M343.09,151.88v-10.47
				c2.53,0.85,4.56,5.23,4.77,10.47H343.09z M337.59,142.22c-1.64,2.25-2.71,5.69-2.86,9.66h-4.03
				C331.05,147.55,333.78,143.89,337.59,142.22z M330.71,153.67h4.03c0.14,3.97,1.22,7.42,2.86,9.66
				C333.78,161.67,331.05,158,330.71,153.67z M346.79,163.34c1.64-2.25,2.71-5.69,2.86-9.66h4.03
				C353.34,158,350.6,161.67,346.79,163.34z"/>
		</g>
		<g class="st0">
			<path class="st28" d="M74.64,223.76c0,0-2.45-12.26-13.15-7.13c-10.7,5.13-2.01,20.96-9.36,22.29
				c-7.36,1.34-11.15,0.89-10.92,6.24c0.22,5.35,19.4,12.04,22.96,0c3.57-12.04-1.78-22.07,3.34-22.52
				c5.13-0.45,6.24,4.46,6.24,4.46L74.64,223.76z"/>
			<path class="st28" d="M80.86,216.96c0,0-8.49-0.05-9.63,7.01c-1.07,6.61,4.2,9.01,4.2,9.01L80.86,216.96z"/>
			<g class="st28">
				<g>
					<polygon class="st29" points="68.76,327.12 65.3,353.08 61.15,353.05 64.48,327.25 					"/>
					<path class="st30" d="M65.82,353.08l3.25,0.02c1.86,0.01,3.9,0.65,4.37,2.88l0.23,1.46l-12.92-0.1c0,0-0.83-2.48,0.37-4.31
						L65.82,353.08z"/>
				</g>
				<g>
					<polygon class="st29" points="94.13,324.63 92.9,350.61 88.75,350.57 89.86,324.76 					"/>
					<path class="st30" d="M93.41,350.61l3.25,0.02c1.86,0.01,3.9,0.65,4.37,2.88l0.23,1.46l-12.92-0.1c0,0-0.83-2.48,0.37-4.31
						L93.41,350.61z"/>
				</g>
				<g>
					<path class="st31" d="M89.42,244.96l-5.07,24.1l-12.94-0.37l-2.44-23.66c-0.07-1.35,1-2.5,2.36-2.51l15.89-0.12
						C88.59,242.38,89.64,243.61,89.42,244.96z"/>
					<polygon class="st31" points="85.81,242.41 95.88,242.45 96.12,249.65 84.89,251.84 					"/>
					<polygon class="st29" points="95.88,242.45 105.71,241.74 106.38,248.35 96.12,249.65 					"/>
					<polygon class="st29" points="105.71,241.74 117.33,230.84 119.56,233.97 106.38,248.35 					"/>
					<path class="st31" d="M89.42,244.96l0.46,6.94c0.05,0.77-0.18,1.52-0.66,2.13l-4.57,5.83L89.42,244.96z"/>
					<path class="st29" d="M61.33,281.37c1.06,1.95,3.49,2.68,5.45,1.63c1.95-1.05,2.68-3.49,1.63-5.45
						c-1.06-1.95-3.49-2.68-5.45-1.63C61,276.98,60.27,279.42,61.33,281.37z"/>
					<path class="st29" d="M117.21,232.78c1.06,1.95,3.49,2.68,5.45,1.63c1.95-1.06,2.68-3.49,1.63-5.45
						c-1.06-1.95-3.49-2.68-5.45-1.63C116.89,228.38,116.16,230.82,117.21,232.78z"/>
					<path class="st31" d="M71.33,242.52c0,0-4.51,0.13-7.81,3.53L58,251.08l3.94,5.33l9.2-7.47L71.33,242.52z"/>
					<path class="st29" d="M61.95,256.4l-4.93,3.83l7.93,16.46l-2.34,2.25l-11.7-19.19c-0.47-0.96-0.24-2.12,0.56-2.83l6.53-5.85
						L61.95,256.4z"/>
					<path class="st32" d="M79.08,245.24l0.53-0.05c1.43-0.13,2.49-1.39,2.38-2.83l-0.8-9.92l-5.77,0.53l0.79,9.86
						C76.34,244.3,77.63,245.38,79.08,245.24z"/>
					<path class="st29" d="M82.88,240l0.25-0.02c4.17-0.33,7.29-3.97,6.96-8.14l-0.71-9.11l-15.36,1.2l0.71,9.11
						C75.06,237.21,78.71,240.33,82.88,240z"/>
					<path d="M73.53,229.73l1.83,2.38c0,0,2.01,1.11,1.71-2.69c-0.25-3.22,2.13-2.4,2.13-2.4s9.96,3.28,12.7-0.76
						c3.38-5-5.04-9.93-11.04-9.3l-7.95,5.67L73.53,229.73z"/>
					<path class="st29" d="M76.27,232.03c0.12,1.39-0.91,2.62-2.3,2.74c-1.39,0.12-2.62-0.91-2.74-2.3
						c-0.12-1.39,0.91-2.62,2.3-2.74C74.92,229.61,76.15,230.64,76.27,232.03z"/>
					<path class="st19" d="M74.33,233.6c0.02,0.25-0.16,0.47-0.41,0.49s-0.47-0.16-0.49-0.41s0.16-0.47,0.41-0.49
						C74.08,233.17,74.3,233.35,74.33,233.6z"/>
					<g>
						<path d="M82.63,230.53c0.02,0.38,0.35,0.67,0.73,0.65c0.39-0.02,0.69-0.34,0.67-0.71c-0.02-0.38-0.35-0.67-0.73-0.65
							C82.91,229.84,82.61,230.16,82.63,230.53z"/>
						<path d="M87.6,230.44c0.02,0.38,0.35,0.67,0.73,0.65c0.39-0.02,0.69-0.34,0.67-0.71c-0.02-0.38-0.35-0.67-0.73-0.65
							C87.88,229.74,87.58,230.06,87.6,230.44z"/>
						<path class="st32" d="M86.36,231.25l1.41,1.34c0.14,0.16,0.03,0.41-0.19,0.41l-1.48,0.05L86.36,231.25L86.36,231.25z"/>
					</g>
					<path class="st19" d="M88.3,234.21l-5.97,0.21c0,0,0.33,2.39,3.56,2.16C88.07,236.41,88.3,234.21,88.3,234.21z"/>
				</g>
				<g>
					<path class="st33" d="M84.35,269.05"/>
					<path class="st34" d="M71.33,272.99l13.02-3.93l0.09,2.57l13.17,38.8c0.51,0.94,0.33,2.84,0.12,3.5l-3.76,33.54l-5.8,0.03
						l1.07-35.82L71.33,272.99z"/>
					<path class="st34" d="M71.41,268.68l10.45,0.43l-15.27,81.25l-5.86-0.15l6.54-64.31C63.22,274.85,71.41,268.68,71.41,268.68z"
						/>
					<polygon class="st35" points="84.35,269.05 71.41,268.68 82.09,273.95 					"/>
					<polygon class="st36" points="84.68,285.81 81.41,290.01 89.24,311.67 79.1,290.76 79.54,286.11 					"/>
				</g>
			</g>
		</g>
		<path class="st26" d="M222.1,305.12h81.33c1.9,0,3.44-1.54,3.44-3.44v-81.89c0-1.9-1.54-3.44-3.44-3.44H222.1
			c-1.9,0-3.44,1.54-3.44,3.44v81.89C218.66,303.58,220.2,305.12,222.1,305.12z"/>
		<g class="st0">
			<path class="st37" d="M349.33,260.16c-0.1-0.01-0.19-0.03-0.29-0.05l-22.57-4.96l1.62-7.38l20.22,4.45
				c4.49-5.89,11.2-12.68,11.2-12.68c-0.05,0.09,0.21,0.34,0,0l7.14,1.24c0.2,1.84-1.39,1.74-13.8,17.94
				C352.01,259.8,350.67,260.34,349.33,260.16z"/>
			<polygon class="st38" points="358.64,273.74 355.96,281.96 381.12,285.06 380.99,274.52 			"/>
			<polygon class="st38" points="368.64,279.9 355.12,303.46 357.65,333.77 348.68,334.83 344.6,302.16 356.69,279.74 			"/>
			<polygon class="st39" points="366.66,283.24 361.56,282.4 363.92,288.12 			"/>
			<polygon class="st38" points="381.18,283.35 381.27,306.75 385.71,345.67 376.71,346.87 370.85,307.08 369.75,280.02 			"/>
			<path class="st40" d="M357.32,344.24l-0.9-6.96l-4.86,0.57l0.26,3.15l-6.66,1.69c-1.04,0.38-1.68,1.33-1.65,2.43l0.13,1.08
				l13.82-0.89L357.32,344.24z"/>
			<path class="st40" d="M384.75,352.77l-0.52-6.99l-4.89,0.31l0.09,3.15l-6.73,2.02c-1.06,0.32-1.75,1.23-1.79,2.34l0.07,1.08
				l13.83-0.82L384.75,352.77z"/>
			<path class="st37" d="M372.39,238.47l0.73,0.17c3.22,0.76,5.67,3.37,6.24,6.63l3.16,30.08c-11.51,5.28-25.14-1.67-25.14-1.67
				l-0.78-27.91c-0.17-3.08,1.63-5.93,4.49-7.1l0,0L372.39,238.47z"/>
			<polygon class="st41" points="369.7,240.94 363.49,239.99 365.49,225.88 371.7,226.83 			"/>
			<path class="st41" d="M362.04,238.65l9.6-0.17c0,0-0.45,5.57-6.21,5.09C360.18,243.14,362.04,238.65,362.04,238.65z"/>
			
				<rect x="347.58" y="333.85" transform="matrix(0.9938 -0.1108 0.1108 0.9938 -35.0352 41.206)" class="st42" width="11.27" height="3.93"/>
			
				<rect x="375.44" y="342.62" transform="matrix(0.9922 -0.1243 0.1243 0.9922 -39.8783 50.0418)" class="st42" width="11.27" height="3.93"/>
			<path class="st43" d="M357.2,267.27l6.7,0.47c1.89,0.01,3.63-1.01,4.55-2.67l8.62-16.36c-3.57,9.64-8.06,19.4-8.06,19.4
				c-0.55,1.25-1.85,1.99-3.2,1.85l-8.56-0.94L357.2,267.27z"/>
			<g class="st28">
				<g>
					<path class="st29" d="M363.6,235.47l-0.84-0.12c-3.8-0.54-6.44-4.05-5.9-7.85l1.57-11.1l14.58,2.06l-1.57,11.1
						C370.91,233.36,367.39,236,363.6,235.47z"/>
					<path d="M371.14,226.42c0,0-2.89-2.91-2.78-7.6c0,0-12.48,1.95-12.4-3.17c0.07-4.72,5.37-5.68,9.1-3.72
						c1.97,1.03,5.61,3.4,8.14,4.28c1.03,0.36,1.91,1.06,2.42,2.03c0.85,1.62,1.31,4.2-2.23,6.45L371.14,226.42z"/>
					<g>
						<path d="M359.5,224.26c-0.03,0.44-0.42,0.76-0.86,0.73c-0.45-0.03-0.79-0.41-0.76-0.84s0.42-0.76,0.86-0.73
							C359.19,223.45,359.53,223.83,359.5,224.26z"/>
						<path d="M364.95,224.63c-0.03,0.44-0.42,0.76-0.86,0.73c-0.45-0.03-0.79-0.41-0.76-0.84c0.03-0.44,0.42-0.76,0.86-0.73
							C364.64,223.82,364.98,224.2,364.95,224.63z"/>
						<path d="M366.28,222.77c0.43,0,0.8-0.34,0.83-0.77c0.03-0.46-0.31-0.85-0.77-0.88l-3.18-0.21c-0.46-0.04-0.85,0.31-0.88,0.77
							s0.31,0.85,0.77,0.88l3.18,0.21C366.24,222.77,366.26,222.77,366.28,222.77z"/>
						<path d="M359.66,222.33c0.43,0,0.8-0.34,0.83-0.77c0.03-0.46-0.31-0.85-0.77-0.88l-2.06-0.14c-0.45-0.03-0.85,0.31-0.88,0.77
							s0.31,0.85,0.77,0.88l2.06,0.14C359.62,222.33,359.64,222.33,359.66,222.33z"/>
						<path class="st32" d="M361.02,224.89L359,226.5c-0.24,0.19-0.15,0.58,0.16,0.64l2.11,0.47L361.02,224.89L361.02,224.89z"/>
					</g>
				</g>
				<path d="M369.84,223.94c0,0-0.72,6.82-4.89,5.23c-7.6-2.91-8.15-0.37-8.15-0.37s-0.14,6.49,5.96,7.07c0,0,4.41,1.17,7.08-2.24
					c0,0,2.72-2.91,2.15-9.69H369.84z"/>
				<path class="st29" d="M375.82,227.14c-0.2,1.39-1.48,2.36-2.87,2.16c-1.39-0.2-2.36-1.48-2.16-2.87
					c0.2-1.39,1.48-2.36,2.87-2.16C375.05,224.46,376.01,225.75,375.82,227.14z"/>
			</g>
		</g>
		<g>
			<g>
				<path class="st44" d="M222.64,232.46v65.48c0,1.84,1.49,3.33,3.33,3.33h128.95c1.84,0,3.35-1.51,3.35-3.35v-65.48
					c0-1.55-1.26-2.8-2.8-2.8H225.46C223.9,229.64,222.64,230.9,222.64,232.46z"/>
			</g>
			<g>
				<path class="st45" d="M222.64,232.05v9.64h135.64v-9.64c0-1.33-1.08-2.41-2.41-2.41H225.05
					C223.72,229.64,222.64,230.72,222.64,232.05z"/>
				<g>
					<path class="st19" d="M349.8,236.24c0,0.9,0.73,1.63,1.63,1.63s1.63-0.73,1.63-1.63c0-0.9-0.73-1.63-1.63-1.63
						S349.8,235.34,349.8,236.24z"/>
					<path class="st19" d="M343.29,236.24c0,0.9,0.73,1.63,1.63,1.63s1.63-0.73,1.63-1.63c0-0.9-0.73-1.63-1.63-1.63
						C344.02,234.61,343.29,235.34,343.29,236.24z"/>
					<path class="st19" d="M336.78,236.24c0,0.9,0.73,1.63,1.63,1.63s1.63-0.73,1.63-1.63c0-0.9-0.73-1.63-1.63-1.63
						S336.78,235.34,336.78,236.24z"/>
				</g>
			</g>
			<path class="st19" d="M235.15,265.46h110.63c1.23,0,2.22-1,2.22-2.22v-13.38c0-1.23-0.99-2.22-2.22-2.22H235.15
				c-1.23,0-2.22,0.99-2.22,2.22v13.38C232.92,264.46,233.92,265.46,235.15,265.46z"/>
			<g>
				<path class="st19" d="M290.41,277.56h55.33c0.95,0,1.71-0.77,1.71-1.71l0,0c0-0.95-0.77-1.71-1.71-1.71h-55.33
					c-0.95,0-1.71,0.77-1.71,1.71l0,0C288.69,276.79,289.46,277.56,290.41,277.56z"/>
				<path class="st19" d="M326.72,287.58h19.2c0.84,0,1.53-0.68,1.53-1.53v-0.38c0-0.84-0.68-1.53-1.53-1.53h-19.2
					c-0.84,0-1.53,0.68-1.53,1.53v0.38C325.19,286.9,325.88,287.58,326.72,287.58z"/>
			</g>
		</g>
		<g>
			<path class="st46" d="M316.96,20.58c6.75,0,7.25,4.12,7.25,4.12s0.5-4.12,7.25-4.12s9.12,7.74,7.37,12.37
				c-1.75,4.62-14.62,16.36-14.62,16.36s-12.87-11.74-14.61-16.36C307.85,28.33,310.22,20.58,316.96,20.58z"/>
			<path class="st46" d="M43.23,190.07h0.03v-22.76l0.01-0.08h-0.01l0,0h-0.02l-22.15,2.97l0,0v17.99
				c-0.88-0.28-1.86-0.39-2.89-0.29c-3.25,0.32-5.69,2.63-5.44,5.17s3.08,4.35,6.34,4.03s5.69-2.63,5.45-5.18
				c0-0.04-0.01-0.08-0.02-0.13h0.03v-15.6l15.26-2.23v12.49c-0.88-0.28-1.86-0.39-2.89-0.29c-3.25,0.32-5.69,2.63-5.44,5.17
				s3.08,4.35,6.34,4.03c3.25-0.32,5.69-2.63,5.44-5.17C43.24,190.16,43.23,190.12,43.23,190.07z"/>
			<path class="st47" d="M412.03,202.24c-1.62,0-3.01,0.99-3.6,2.41h-6.29c-0.57-1.37-1.9-2.34-3.46-2.39l-1.01-2.71h16.02l9-13.94
				h-30.22l-1.73-4.64h-5.98c-0.82,0-1.49,0.67-1.49,1.49s0.67,1.49,1.49,1.49h3.91l7.23,19.36c-0.76,0.71-1.25,1.72-1.25,2.84
				c0,2.15,1.74,3.9,3.9,3.9c1.62,0,3.01-1,3.6-2.41h6.29c0.59,1.41,1.98,2.41,3.6,2.41c2.15,0,3.9-1.75,3.9-3.9
				C415.92,203.98,414.18,202.24,412.03,202.24z"/>
			<g class="st0">
				<path class="st48" d="M65.87,54.51h26.66c1.45,0,2.63,1.17,2.63,2.63v19.04c0,1.45-1.18,2.63-2.63,2.63H91.1v6.59l-6.59-6.59
					H65.87c-1.45,0-2.63-1.18-2.63-2.63V57.14C63.24,55.68,64.42,54.51,65.87,54.51z"/>
			</g>
		</g>
		<polygon class="st6" points="255.18,155 238.01,140 219.8,155 226.81,155 226.99,172.16 248.49,172.16 248.49,155.18 		"/>
		<polygon class="st25" points="171.16,157.17 188.33,172.16 206.54,157.17 199.53,157.17 199.35,140 177.85,140 177.85,156.99 		
			"/>
		<g class="st0">
			<g class="st28">
				<path class="st29" d="M339.82,261.55c-0.29,2.07-2.2,3.52-4.27,3.23c-2.07-0.29-3.52-2.2-3.23-4.27
					c0.29-2.07,2.2-3.52,4.27-3.23C338.66,257.57,340.1,259.48,339.82,261.55z"/>
				<path class="st29" d="M341.96,263.76l-3.9-0.54c-1.02-0.14-1.74-1.09-1.59-2.11l0,0c0.14-1.02,1.09-1.74,2.11-1.59l3.9,0.54
					c1.02,0.14,1.74,1.09,1.6,2.11l0,0C343.93,263.19,342.98,263.9,341.96,263.76z"/>
			</g>
			<path class="st37" d="M341.57,266.17l0.53-7.53l20.76,1.47l8.31-16.44c0.99-1.83,3.29-2.51,5.12-1.52l0,0
				c1.83,0.99,2.51,3.29,1.52,5.12l-9.47,18.58c-0.71,1.3-2.11,2.07-3.59,1.97L341.57,266.17z"/>
		</g>
	</g>
	<g class="st49">
		<path class="st45" d="M240.94,253.6h2l1.64,4.64l1.77-4.64h1.23l1.73,4.59l1.64-4.59h2.02l-2.98,8.16h-1.3l-1.74-4.65l-1.79,4.65
			h-1.28L240.94,253.6z"/>
		<path class="st45" d="M253.22,253.6h2l1.64,4.64l1.77-4.64h1.23l1.73,4.59l1.64-4.59h2.02l-2.98,8.16h-1.3l-1.74-4.65l-1.79,4.65
			h-1.28L253.22,253.6z"/>
		<path class="st45" d="M265.51,253.6h2l1.64,4.64l1.76-4.64h1.23l1.73,4.59l1.64-4.59h2.02l-2.98,8.16h-1.3l-1.74-4.65l-1.79,4.65
			h-1.28L265.51,253.6z"/>
		<path class="st45" d="M279.81,259.63c0.33,0,0.6,0.12,0.83,0.34c0.23,0.23,0.34,0.5,0.34,0.83c0,0.33-0.12,0.6-0.34,0.83
			c-0.23,0.23-0.51,0.34-0.83,0.34s-0.6-0.12-0.83-0.34c-0.23-0.23-0.34-0.51-0.34-0.83c0-0.32,0.11-0.6,0.34-0.83
			C279.21,259.74,279.49,259.63,279.81,259.63z"/>
	</g>
	<g>
		<g>
			<g>
				<g>
					<path class="st50" d="M130.75,255.48h-0.49c-0.34,0-0.6-0.28-0.57-0.62l0.73-10.49c0.14-2.05,1.93-3.72,3.98-3.72h10.48
						c0.34,0,0.6,0.28,0.57,0.62l-0.03,0.49c-0.02,0.34-0.32,0.62-0.66,0.62h-10.48c-1.1,0-2.05,0.89-2.13,1.99l-0.73,10.49
						C131.39,255.21,131.09,255.48,130.75,255.48z"/>
				</g>
				<g>
					<path class="st50" d="M170.51,298.76l0.03-0.49c0.02-0.34,0.32-0.62,0.66-0.62h10.48c1.1,0,2.05-0.89,2.13-1.99l0.73-10.49
						c0.02-0.34,0.32-0.62,0.66-0.62h0.49c0.34,0,0.6,0.28,0.57,0.62l-0.73,10.49c-0.14,2.05-1.92,3.72-3.98,3.72h-10.48
						C170.75,299.38,170.49,299.1,170.51,298.76z"/>
				</g>
				<g>
					<path class="st50" d="M187.74,255.48h-0.49c-0.34,0-0.6-0.28-0.57-0.62l0.73-10.41c0.03-0.42-0.04-0.85-0.26-1.19
						c-0.35-0.56-0.93-0.87-1.59-0.87h-10.49c-0.34,0-0.6-0.28-0.57-0.62l0.03-0.49c0.02-0.34,0.32-0.62,0.66-0.62h10.35
						c0.91,0,1.8,0.27,2.46,0.86c0.81,0.72,1.22,1.75,1.14,2.86l-0.73,10.48C188.38,255.21,188.08,255.48,187.74,255.48z"/>
				</g>
				<g>
					<path class="st50" d="M130.29,299.38c-1.1,0-2.1-0.48-2.76-1.34c-0.54-0.7-0.75-1.61-0.68-2.52l0.72-10.35
						c0.02-0.34,0.32-0.62,0.66-0.62h0.49c0.34,0,0.6,0.28,0.57,0.62l-0.73,10.42c-0.03,0.42,0.04,0.85,0.26,1.19
						c0.35,0.56,0.93,0.87,1.59,0.87l0,0h10.49c0.34,0,0.6,0.28,0.57,0.62l-0.03,0.49c-0.02,0.34-0.32,0.62-0.66,0.62H130.29
						L130.29,299.38z"/>
				</g>
			</g>
		</g>
		<g>
			<g>
				<path class="st45" d="M140.23,314.17c-0.44,0.49-1.04,0.76-1.71,0.76c-0.91,0-1.53-0.33-2.41-1.33
					c-1.67-0.21-2.77-1.48-2.65-3.15c0.13-1.83,1.64-3.18,3.58-3.18c1.93,0,3.27,1.34,3.14,3.18c-0.1,1.44-1.07,2.58-2.4,3
					c0.28,0.32,0.53,0.43,0.84,0.43c0.38,0,0.72-0.15,1.03-0.46L140.23,314.17z M136.69,312.41c1.1,0,1.98-0.8,2.06-1.97
					s-0.69-1.97-1.79-1.97c-1.1,0-1.98,0.8-2.06,1.97C134.82,311.61,135.59,312.41,136.69,312.41z"/>
				<path class="st45" d="M144.96,313.52l-1.07-1.71h-0.07h-1.24l-0.12,1.71h-1.42l0.43-6.14h2.66c1.64,0,2.61,0.85,2.51,2.23
					c-0.06,0.92-0.58,1.6-1.4,1.94l1.24,1.98h-1.52V313.52z M143.98,308.53h-1.16l-0.15,2.14h1.16c0.87,0,1.34-0.4,1.38-1.07
					C145.26,308.92,144.84,308.53,143.98,308.53z"/>
				<path class="st45" d="M149.82,310.44c0.13-1.85,1.64-3.18,3.56-3.18c1.06,0,1.92,0.39,2.45,1.09l-0.97,0.84
					c-0.38-0.47-0.88-0.72-1.49-0.72c-1.15,0-2.02,0.81-2.1,1.97s0.68,1.97,1.83,1.97c0.61,0,1.15-0.25,1.6-0.73l0.85,0.84
					c-0.63,0.71-1.54,1.1-2.61,1.1C151.02,313.62,149.69,312.3,149.82,310.44z"/>
				<path class="st45" d="M156.12,310.44c0.13-1.83,1.64-3.18,3.58-3.18c1.93,0,3.27,1.34,3.14,3.18c-0.13,1.83-1.65,3.18-3.58,3.18
					C157.32,313.62,155.99,312.27,156.12,310.44z M161.41,310.44c0.08-1.17-0.69-1.97-1.79-1.97c-1.1,0-1.98,0.8-2.06,1.97
					s0.69,1.97,1.78,1.97C160.44,312.41,161.32,311.61,161.41,310.44z"/>
				<path class="st45" d="M164.14,307.37h2.79c2.01,0,3.3,1.21,3.17,3.07c-0.13,1.86-1.59,3.07-3.6,3.07h-2.79L164.14,307.37z
					 M166.51,312.35c1.22,0,2.07-0.73,2.15-1.9c0.08-1.18-0.67-1.9-1.89-1.9h-1.3l-0.27,3.81h1.31V312.35z"/>
				<path class="st45" d="M175.8,312.37l-0.08,1.14h-4.76l0.43-6.14h4.64l-0.08,1.14h-3.23l-0.09,1.33h2.85l-0.08,1.11h-2.85
					l-0.1,1.42H175.8z"/>
			</g>
		</g>
		<g>
			<g>
				<polygon class="st51" points="135.22,245.3 135.09,247.27 137.05,247.27 137.19,245.3 				"/>
				<polygon class="st51" points="137.19,245.3 137.05,247.27 139.02,247.27 139.15,245.3 				"/>
				<polygon class="st51" points="139.15,245.3 139.02,247.27 140.98,247.27 141.12,245.3 				"/>
				<polygon class="st51" points="141.12,245.3 140.98,247.27 142.95,247.27 143.09,245.3 				"/>
				<polygon class="st51" points="143.09,245.3 142.95,247.27 144.91,247.27 145.05,245.3 				"/>
				<polygon class="st51" points="145.05,245.3 144.91,247.27 146.88,247.27 147.02,245.3 				"/>
				<polygon class="st51" points="147.02,245.3 146.88,247.27 148.84,247.27 148.98,245.3 				"/>
				<polygon class="st51" points="154.88,245.3 154.74,247.27 156.71,247.27 156.84,245.3 				"/>
				<polygon class="st51" points="160.77,245.3 160.64,247.27 162.6,247.27 162.74,245.3 				"/>
				<polygon class="st51" points="162.74,245.3 162.6,247.27 164.57,247.27 164.7,245.3 				"/>
				<polygon class="st51" points="164.7,245.3 164.57,247.27 166.53,247.27 166.67,245.3 				"/>
				<polygon class="st51" points="166.67,245.3 166.53,247.27 168.5,247.27 168.64,245.3 				"/>
				<polygon class="st51" points="170.6,245.3 170.46,247.27 172.43,247.27 172.57,245.3 				"/>
				<polygon class="st51" points="172.57,245.3 172.43,247.27 174.39,247.27 174.53,245.3 				"/>
				<polygon class="st51" points="174.53,245.3 174.39,247.27 176.36,247.27 176.5,245.3 				"/>
				<polygon class="st51" points="176.5,245.3 176.36,247.27 178.33,247.27 178.46,245.3 				"/>
				<polygon class="st51" points="178.46,245.3 178.33,247.27 180.29,247.27 180.43,245.3 				"/>
				<polygon class="st51" points="180.43,245.3 180.29,247.27 182.26,247.27 182.39,245.3 				"/>
				<polygon class="st51" points="182.39,245.3 182.26,247.27 184.22,247.27 184.36,245.3 				"/>
				<polygon class="st51" points="135.09,247.27 134.95,249.23 136.91,249.23 137.05,247.27 				"/>
				<polygon class="st51" points="146.88,247.27 146.74,249.23 148.71,249.23 148.84,247.27 				"/>
				<polygon class="st51" points="152.77,247.27 152.64,249.23 154.6,249.23 154.74,247.27 				"/>
				<polygon class="st51" points="162.6,247.27 162.46,249.23 164.43,249.23 164.57,247.27 				"/>
				<polygon class="st51" points="164.57,247.27 164.43,249.23 166.4,249.23 166.53,247.27 				"/>
				<polygon class="st51" points="166.53,247.27 166.4,249.23 168.36,249.23 168.5,247.27 				"/>
				<polygon class="st51" points="170.46,247.27 170.33,249.23 172.29,249.23 172.43,247.27 				"/>
				<polygon class="st51" points="182.26,247.27 182.12,249.23 184.08,249.23 184.22,247.27 				"/>
				<polygon class="st51" points="134.95,249.23 134.81,251.2 136.78,251.2 136.91,249.23 				"/>
				<polygon class="st51" points="138.88,249.23 138.74,251.2 140.71,251.2 140.84,249.23 				"/>
				<polygon class="st51" points="140.84,249.23 140.71,251.2 142.67,251.2 142.81,249.23 				"/>
				<polygon class="st51" points="142.81,249.23 142.67,251.2 144.64,251.2 144.78,249.23 				"/>
				<polygon class="st51" points="146.74,249.23 146.6,251.2 148.57,251.2 148.71,249.23 				"/>
				<polygon class="st51" points="150.67,249.23 150.53,251.2 152.5,251.2 152.64,249.23 				"/>
				<polygon class="st51" points="156.57,249.23 156.43,251.2 158.4,251.2 158.53,249.23 				"/>
				<polygon class="st51" points="162.46,249.23 162.33,251.2 164.29,251.2 164.43,249.23 				"/>
				<polygon class="st51" points="170.33,249.23 170.19,251.2 172.15,251.2 172.29,249.23 				"/>
				<polygon class="st51" points="174.26,249.23 174.12,251.2 176.09,251.2 176.22,249.23 				"/>
				<polygon class="st51" points="176.22,249.23 176.09,251.2 178.05,251.2 178.19,249.23 				"/>
				<polygon class="st51" points="178.19,249.23 178.05,251.2 180.02,251.2 180.15,249.23 				"/>
				<polygon class="st51" points="182.12,249.23 181.98,251.2 183.95,251.2 184.08,249.23 				"/>
				<polygon class="st51" points="134.81,251.2 134.67,253.17 136.64,253.17 136.78,251.2 				"/>
				<polygon class="st51" points="138.74,251.2 138.6,253.17 140.57,253.17 140.71,251.2 				"/>
				<polygon class="st51" points="140.71,251.2 140.57,253.17 142.54,253.17 142.67,251.2 				"/>
				<polygon class="st51" points="142.67,251.2 142.54,253.17 144.5,253.17 144.64,251.2 				"/>
				<polygon class="st51" points="146.6,251.2 146.47,253.17 148.43,253.17 148.57,251.2 				"/>
				<polygon class="st51" points="152.5,251.2 152.36,253.17 154.33,253.17 154.47,251.2 				"/>
				<polygon class="st51" points="162.33,251.2 162.19,253.17 164.16,253.17 164.29,251.2 				"/>
				<polygon class="st51" points="164.29,251.2 164.16,253.17 166.12,253.17 166.26,251.2 				"/>
				<polygon class="st51" points="170.19,251.2 170.05,253.17 172.02,253.17 172.15,251.2 				"/>
				<polygon class="st51" points="174.12,251.2 173.98,253.17 175.95,253.17 176.09,251.2 				"/>
				<polygon class="st51" points="176.09,251.2 175.95,253.17 177.91,253.17 178.05,251.2 				"/>
				<polygon class="st51" points="178.05,251.2 177.91,253.17 179.88,253.17 180.02,251.2 				"/>
				<polygon class="st51" points="181.98,251.2 181.84,253.17 183.81,253.17 183.95,251.2 				"/>
				<polygon class="st51" points="134.67,253.17 134.54,255.13 136.5,255.13 136.64,253.17 				"/>
				<polygon class="st51" points="138.6,253.17 138.47,255.13 140.43,255.13 140.57,253.17 				"/>
				<polygon class="st51" points="140.57,253.17 140.43,255.13 142.4,255.13 142.54,253.17 				"/>
				<polygon class="st51" points="142.54,253.17 142.4,255.13 144.36,255.13 144.5,253.17 				"/>
				<polygon class="st51" points="146.47,253.17 146.33,255.13 148.29,255.13 148.43,253.17 				"/>
				<polygon class="st51" points="152.36,253.17 152.23,255.13 154.19,255.13 154.33,253.17 				"/>
				<polygon class="st51" points="158.26,253.17 158.12,255.13 160.09,255.13 160.22,253.17 				"/>
				<polygon class="st51" points="160.22,253.17 160.09,255.13 162.05,255.13 162.19,253.17 				"/>
				<polygon class="st51" points="162.19,253.17 162.05,255.13 164.02,255.13 164.16,253.17 				"/>
				<polygon class="st51" points="164.16,253.17 164.02,255.13 165.98,255.13 166.12,253.17 				"/>
				<polygon class="st51" points="170.05,253.17 169.91,255.13 171.88,255.13 172.02,253.17 				"/>
				<polygon class="st51" points="173.98,253.17 173.84,255.13 175.81,255.13 175.95,253.17 				"/>
				<polygon class="st51" points="175.95,253.17 175.81,255.13 177.78,255.13 177.91,253.17 				"/>
				<polygon class="st51" points="177.91,253.17 177.78,255.13 179.74,255.13 179.88,253.17 				"/>
				<polygon class="st51" points="181.84,253.17 181.71,255.13 183.67,255.13 183.81,253.17 				"/>
				<polygon class="st51" points="134.54,255.13 134.4,257.1 136.36,257.1 136.5,255.13 				"/>
				<polygon class="st51" points="146.33,255.13 146.19,257.1 148.16,257.1 148.29,255.13 				"/>
				<polygon class="st51" points="154.19,255.13 154.05,257.1 156.02,257.1 156.16,255.13 				"/>
				<polygon class="st51" points="156.16,255.13 156.02,257.1 157.98,257.1 158.12,255.13 				"/>
				<polygon class="st51" points="160.09,255.13 159.95,257.1 161.91,257.1 162.05,255.13 				"/>
				<polygon class="st51" points="162.05,255.13 161.91,257.1 163.88,257.1 164.02,255.13 				"/>
				<polygon class="st51" points="164.02,255.13 163.88,257.1 165.85,257.1 165.98,255.13 				"/>
				<polygon class="st51" points="165.98,255.13 165.85,257.1 167.81,257.1 167.95,255.13 				"/>
				<polygon class="st51" points="169.91,255.13 169.78,257.1 171.74,257.1 171.88,255.13 				"/>
				<polygon class="st51" points="181.71,255.13 181.57,257.1 183.53,257.1 183.67,255.13 				"/>
				<polygon class="st51" points="134.4,257.1 134.26,259.06 136.23,259.06 136.36,257.1 				"/>
				<polygon class="st51" points="136.36,257.1 136.23,259.06 138.19,259.06 138.33,257.1 				"/>
				<polygon class="st51" points="138.33,257.1 138.19,259.06 140.16,259.06 140.3,257.1 				"/>
				<polygon class="st51" points="140.3,257.1 140.16,259.06 142.12,259.06 142.26,257.1 				"/>
				<polygon class="st51" points="142.26,257.1 142.12,259.06 144.09,259.06 144.23,257.1 				"/>
				<polygon class="st51" points="144.23,257.1 144.09,259.06 146.05,259.06 146.19,257.1 				"/>
				<polygon class="st51" points="146.19,257.1 146.05,259.06 148.02,259.06 148.16,257.1 				"/>
				<polygon class="st51" points="150.12,257.1 149.98,259.06 151.95,259.06 152.09,257.1 				"/>
				<polygon class="st51" points="154.05,257.1 153.92,259.06 155.88,259.06 156.02,257.1 				"/>
				<polygon class="st51" points="157.98,257.1 157.85,259.06 159.81,259.06 159.95,257.1 				"/>
				<polygon class="st51" points="161.91,257.1 161.78,259.06 163.74,259.06 163.88,257.1 				"/>
				<polygon class="st51" points="165.85,257.1 165.71,259.06 167.67,259.06 167.81,257.1 				"/>
				<polygon class="st51" points="169.78,257.1 169.64,259.06 171.6,259.06 171.74,257.1 				"/>
				<polygon class="st51" points="171.74,257.1 171.6,259.06 173.57,259.06 173.71,257.1 				"/>
				<polygon class="st51" points="173.71,257.1 173.57,259.06 175.54,259.06 175.67,257.1 				"/>
				<polygon class="st51" points="175.67,257.1 175.54,259.06 177.5,259.06 177.64,257.1 				"/>
				<polygon class="st51" points="177.64,257.1 177.5,259.06 179.47,259.06 179.6,257.1 				"/>
				<polygon class="st51" points="179.6,257.1 179.47,259.06 181.43,259.06 181.57,257.1 				"/>
				<polygon class="st51" points="181.57,257.1 181.43,259.06 183.4,259.06 183.53,257.1 				"/>
				<polygon class="st51" points="149.98,259.06 149.85,261.03 151.81,261.03 151.95,259.06 				"/>
				<polygon class="st51" points="157.85,259.06 157.71,261.03 159.67,261.03 159.81,259.06 				"/>
				<polygon class="st51" points="159.81,259.06 159.67,261.03 161.64,261.03 161.78,259.06 				"/>
				<polygon class="st51" points="165.71,259.06 165.57,261.03 167.54,261.03 167.67,259.06 				"/>
				<polygon class="st51" points="134.12,261.03 133.99,262.99 135.95,262.99 136.09,261.03 				"/>
				<polygon class="st51" points="136.09,261.03 135.95,262.99 137.92,262.99 138.05,261.03 				"/>
				<polygon class="st51" points="138.05,261.03 137.92,262.99 139.88,262.99 140.02,261.03 				"/>
				<polygon class="st51" points="141.99,261.03 141.85,262.99 143.81,262.99 143.95,261.03 				"/>
				<polygon class="st51" points="143.95,261.03 143.81,262.99 145.78,262.99 145.92,261.03 				"/>
				<polygon class="st51" points="145.92,261.03 145.78,262.99 147.74,262.99 147.88,261.03 				"/>
				<polygon class="st51" points="147.88,261.03 147.74,262.99 149.71,262.99 149.85,261.03 				"/>
				<polygon class="st51" points="149.85,261.03 149.71,262.99 151.68,262.99 151.81,261.03 				"/>
				<polygon class="st51" points="155.74,261.03 155.61,262.99 157.57,262.99 157.71,261.03 				"/>
				<polygon class="st51" points="157.71,261.03 157.57,262.99 159.54,262.99 159.67,261.03 				"/>
				<polygon class="st51" points="159.67,261.03 159.54,262.99 161.5,262.99 161.64,261.03 				"/>
				<polygon class="st51" points="165.57,261.03 165.43,262.99 167.4,262.99 167.54,261.03 				"/>
				<polygon class="st51" points="167.54,261.03 167.4,262.99 169.36,262.99 169.5,261.03 				"/>
				<polygon class="st51" points="169.5,261.03 169.36,262.99 171.33,262.99 171.47,261.03 				"/>
				<polygon class="st51" points="177.36,261.03 177.23,262.99 179.19,262.99 179.33,261.03 				"/>
				<polygon class="st51" points="137.92,262.99 137.78,264.96 139.75,264.96 139.88,262.99 				"/>
				<polygon class="st51" points="139.88,262.99 139.75,264.96 141.71,264.96 141.85,262.99 				"/>
				<polygon class="st51" points="141.85,262.99 141.71,264.96 143.68,264.96 143.81,262.99 				"/>
				<polygon class="st51" points="147.74,262.99 147.61,264.96 149.57,264.96 149.71,262.99 				"/>
				<polygon class="st51" points="149.71,262.99 149.57,264.96 151.54,264.96 151.68,262.99 				"/>
				<polygon class="st51" points="151.68,262.99 151.54,264.96 153.5,264.96 153.64,262.99 				"/>
				<polygon class="st51" points="155.61,262.99 155.47,264.96 157.43,264.96 157.57,262.99 				"/>
				<polygon class="st51" points="157.57,262.99 157.43,264.96 159.4,264.96 159.54,262.99 				"/>
				<polygon class="st51" points="165.43,262.99 165.3,264.96 167.26,264.96 167.4,262.99 				"/>
				<polygon class="st51" points="169.36,262.99 169.23,264.96 171.19,264.96 171.33,262.99 				"/>
				<polygon class="st51" points="181.16,262.99 181.02,264.96 182.98,264.96 183.12,262.99 				"/>
				<polygon class="st51" points="137.78,264.96 137.64,266.92 139.61,266.92 139.75,264.96 				"/>
				<polygon class="st51" points="145.64,264.96 145.5,266.92 147.47,266.92 147.61,264.96 				"/>
				<polygon class="st51" points="147.61,264.96 147.47,266.92 149.44,266.92 149.57,264.96 				"/>
				<polygon class="st51" points="153.5,264.96 153.37,266.92 155.33,266.92 155.47,264.96 				"/>
				<polygon class="st51" points="157.43,264.96 157.3,266.92 159.26,266.92 159.4,264.96 				"/>
				<polygon class="st51" points="161.37,264.96 161.23,266.92 163.19,266.92 163.33,264.96 				"/>
				<polygon class="st51" points="169.23,264.96 169.09,266.92 171.05,266.92 171.19,264.96 				"/>
				<polygon class="st51" points="171.19,264.96 171.05,266.92 173.02,266.92 173.16,264.96 				"/>
				<polygon class="st51" points="173.16,264.96 173.02,266.92 174.99,266.92 175.12,264.96 				"/>
				<polygon class="st51" points="177.09,264.96 176.95,266.92 178.92,266.92 179.05,264.96 				"/>
				<polygon class="st51" points="179.05,264.96 178.92,266.92 180.88,266.92 181.02,264.96 				"/>
				<polygon class="st51" points="181.02,264.96 180.88,266.92 182.85,266.92 182.98,264.96 				"/>
				<polygon class="st51" points="133.71,266.92 133.57,268.89 135.54,268.89 135.68,266.92 				"/>
				<polygon class="st51" points="135.68,266.92 135.54,268.89 137.51,268.89 137.64,266.92 				"/>
				<polygon class="st51" points="137.64,266.92 137.51,268.89 139.47,268.89 139.61,266.92 				"/>
				<polygon class="st51" points="141.57,266.92 141.44,268.89 143.4,268.89 143.54,266.92 				"/>
				<polygon class="st51" points="151.4,266.92 151.26,268.89 153.23,268.89 153.37,266.92 				"/>
				<polygon class="st51" points="153.37,266.92 153.23,268.89 155.19,268.89 155.33,266.92 				"/>
				<polygon class="st51" points="157.3,266.92 157.16,268.89 159.12,268.89 159.26,266.92 				"/>
				<polygon class="st51" points="159.26,266.92 159.12,268.89 161.09,268.89 161.23,266.92 				"/>
				<polygon class="st51" points="161.23,266.92 161.09,268.89 163.06,268.89 163.19,266.92 				"/>
				<polygon class="st51" points="163.19,266.92 163.06,268.89 165.02,268.89 165.16,266.92 				"/>
				<polygon class="st51" points="167.12,266.92 166.99,268.89 168.95,268.89 169.09,266.92 				"/>
				<polygon class="st51" points="169.09,266.92 168.95,268.89 170.92,268.89 171.05,266.92 				"/>
				<polygon class="st51" points="171.05,266.92 170.92,268.89 172.88,268.89 173.02,266.92 				"/>
				<polygon class="st51" points="178.92,266.92 178.78,268.89 180.74,268.89 180.88,266.92 				"/>
				<polygon class="st51" points="137.51,268.89 137.37,270.85 139.33,270.85 139.47,268.89 				"/>
				<polygon class="st51" points="139.47,268.89 139.33,270.85 141.3,270.85 141.44,268.89 				"/>
				<polygon class="st51" points="145.37,268.89 145.23,270.85 147.19,270.85 147.33,268.89 				"/>
				<polygon class="st51" points="149.3,268.89 149.16,270.85 151.13,270.85 151.26,268.89 				"/>
				<polygon class="st51" points="153.23,268.89 153.09,270.85 155.06,270.85 155.19,268.89 				"/>
				<polygon class="st51" points="159.12,268.89 158.99,270.85 160.95,270.85 161.09,268.89 				"/>
				<polygon class="st51" points="165.02,268.89 164.88,270.85 166.85,270.85 166.99,268.89 				"/>
				<polygon class="st51" points="166.99,268.89 166.85,270.85 168.81,270.85 168.95,268.89 				"/>
				<polygon class="st51" points="168.95,268.89 168.81,270.85 170.78,270.85 170.92,268.89 				"/>
				<polygon class="st51" points="170.92,268.89 170.78,270.85 172.75,270.85 172.88,268.89 				"/>
				<polygon class="st51" points="174.85,268.89 174.71,270.85 176.68,270.85 176.81,268.89 				"/>
				<polygon class="st51" points="178.78,268.89 178.64,270.85 180.61,270.85 180.74,268.89 				"/>
				<polygon class="st51" points="180.74,268.89 180.61,270.85 182.57,270.85 182.71,268.89 				"/>
				<polygon class="st51" points="143.26,270.85 143.13,272.82 145.09,272.82 145.23,270.85 				"/>
				<polygon class="st51" points="147.19,270.85 147.06,272.82 149.02,272.82 149.16,270.85 				"/>
				<polygon class="st51" points="149.16,270.85 149.02,272.82 150.99,272.82 151.13,270.85 				"/>
				<polygon class="st51" points="153.09,270.85 152.95,272.82 154.92,272.82 155.06,270.85 				"/>
				<polygon class="st51" points="157.02,270.85 156.88,272.82 158.85,272.82 158.99,270.85 				"/>
				<polygon class="st51" points="164.88,270.85 164.75,272.82 166.71,272.82 166.85,270.85 				"/>
				<polygon class="st51" points="166.85,270.85 166.71,272.82 168.68,272.82 168.81,270.85 				"/>
				<polygon class="st51" points="168.81,270.85 168.68,272.82 170.64,272.82 170.78,270.85 				"/>
				<polygon class="st51" points="174.71,270.85 174.57,272.82 176.54,272.82 176.68,270.85 				"/>
				<polygon class="st51" points="180.61,270.85 180.47,272.82 182.44,272.82 182.57,270.85 				"/>
				<polygon class="st51" points="133.3,272.82 133.16,274.79 135.13,274.79 135.26,272.82 				"/>
				<polygon class="st51" points="139.2,272.82 139.06,274.79 141.02,274.79 141.16,272.82 				"/>
				<polygon class="st51" points="141.16,272.82 141.02,274.79 142.99,274.79 143.13,272.82 				"/>
				<polygon class="st51" points="143.13,272.82 142.99,274.79 144.95,274.79 145.09,272.82 				"/>
				<polygon class="st51" points="145.09,272.82 144.95,274.79 146.92,274.79 147.06,272.82 				"/>
				<polygon class="st51" points="147.06,272.82 146.92,274.79 148.89,274.79 149.02,272.82 				"/>
				<polygon class="st51" points="150.99,272.82 150.85,274.79 152.82,274.79 152.95,272.82 				"/>
				<polygon class="st51" points="152.95,272.82 152.82,274.79 154.78,274.79 154.92,272.82 				"/>
				<polygon class="st51" points="158.85,272.82 158.71,274.79 160.68,274.79 160.82,272.82 				"/>
				<polygon class="st51" points="164.75,272.82 164.61,274.79 166.57,274.79 166.71,272.82 				"/>
				<polygon class="st51" points="166.71,272.82 166.57,274.79 168.54,274.79 168.68,272.82 				"/>
				<polygon class="st51" points="168.68,272.82 168.54,274.79 170.51,274.79 170.64,272.82 				"/>
				<polygon class="st51" points="170.64,272.82 170.51,274.79 172.47,274.79 172.61,272.82 				"/>
				<polygon class="st51" points="176.54,272.82 176.4,274.79 178.37,274.79 178.5,272.82 				"/>
				<polygon class="st51" points="178.5,272.82 178.37,274.79 180.33,274.79 180.47,272.82 				"/>
				<polygon class="st51" points="180.47,272.82 180.33,274.79 182.3,274.79 182.44,272.82 				"/>
				<polygon class="st51" points="135.13,274.79 134.99,276.75 136.96,276.75 137.09,274.79 				"/>
				<polygon class="st51" points="137.09,274.79 136.96,276.75 138.92,276.75 139.06,274.79 				"/>
				<polygon class="st51" points="142.99,274.79 142.85,276.75 144.82,276.75 144.95,274.79 				"/>
				<polygon class="st51" points="146.92,274.79 146.78,276.75 148.75,276.75 148.89,274.79 				"/>
				<polygon class="st51" points="150.85,274.79 150.71,276.75 152.68,276.75 152.82,274.79 				"/>
				<polygon class="st51" points="152.82,274.79 152.68,276.75 154.64,276.75 154.78,274.79 				"/>
				<polygon class="st51" points="158.71,274.79 158.58,276.75 160.54,276.75 160.68,274.79 				"/>
				<polygon class="st51" points="162.64,274.79 162.51,276.75 164.47,276.75 164.61,274.79 				"/>
				<polygon class="st51" points="168.54,274.79 168.4,276.75 170.37,276.75 170.51,274.79 				"/>
				<polygon class="st51" points="172.47,274.79 172.33,276.75 174.3,276.75 174.44,274.79 				"/>
				<polygon class="st51" points="178.37,274.79 178.23,276.75 180.19,276.75 180.33,274.79 				"/>
				<polygon class="st51" points="133.02,276.75 132.89,278.72 134.85,278.72 134.99,276.75 				"/>
				<polygon class="st51" points="136.96,276.75 136.82,278.72 138.78,278.72 138.92,276.75 				"/>
				<polygon class="st51" points="142.85,276.75 142.71,278.72 144.68,278.72 144.82,276.75 				"/>
				<polygon class="st51" points="144.82,276.75 144.68,278.72 146.65,278.72 146.78,276.75 				"/>
				<polygon class="st51" points="146.78,276.75 146.65,278.72 148.61,278.72 148.75,276.75 				"/>
				<polygon class="st51" points="158.58,276.75 158.44,278.72 160.4,278.72 160.54,276.75 				"/>
				<polygon class="st51" points="164.47,276.75 164.33,278.72 166.3,278.72 166.44,276.75 				"/>
				<polygon class="st51" points="166.44,276.75 166.3,278.72 168.26,278.72 168.4,276.75 				"/>
				<polygon class="st51" points="168.4,276.75 168.26,278.72 170.23,278.72 170.37,276.75 				"/>
				<polygon class="st51" points="170.37,276.75 170.23,278.72 172.2,278.72 172.33,276.75 				"/>
				<polygon class="st51" points="172.33,276.75 172.2,278.72 174.16,278.72 174.3,276.75 				"/>
				<polygon class="st51" points="174.3,276.75 174.16,278.72 176.13,278.72 176.26,276.75 				"/>
				<polygon class="st51" points="148.61,278.72 148.47,280.68 150.44,280.68 150.58,278.72 				"/>
				<polygon class="st51" points="152.54,278.72 152.4,280.68 154.37,280.68 154.51,278.72 				"/>
				<polygon class="st51" points="156.47,278.72 156.33,280.68 158.3,280.68 158.44,278.72 				"/>
				<polygon class="st51" points="164.33,278.72 164.2,280.68 166.16,280.68 166.3,278.72 				"/>
				<polygon class="st51" points="172.2,278.72 172.06,280.68 174.02,280.68 174.16,278.72 				"/>
				<polygon class="st51" points="174.16,278.72 174.02,280.68 175.99,280.68 176.13,278.72 				"/>
				<polygon class="st51" points="178.09,278.72 177.95,280.68 179.92,280.68 180.06,278.72 				"/>
				<polygon class="st51" points="180.06,278.72 179.92,280.68 181.89,280.68 182.02,278.72 				"/>
				<polygon class="st51" points="132.75,280.68 132.61,282.65 134.58,282.65 134.72,280.68 				"/>
				<polygon class="st51" points="134.72,280.68 134.58,282.65 136.54,282.65 136.68,280.68 				"/>
				<polygon class="st51" points="136.68,280.68 136.54,282.65 138.51,282.65 138.65,280.68 				"/>
				<polygon class="st51" points="138.65,280.68 138.51,282.65 140.47,282.65 140.61,280.68 				"/>
				<polygon class="st51" points="140.61,280.68 140.47,282.65 142.44,282.65 142.58,280.68 				"/>
				<polygon class="st51" points="142.58,280.68 142.44,282.65 144.4,282.65 144.54,280.68 				"/>
				<polygon class="st51" points="144.54,280.68 144.4,282.65 146.37,282.65 146.51,280.68 				"/>
				<polygon class="st51" points="148.47,280.68 148.34,282.65 150.3,282.65 150.44,280.68 				"/>
				<polygon class="st51" points="150.44,280.68 150.3,282.65 152.27,282.65 152.4,280.68 				"/>
				<polygon class="st51" points="152.4,280.68 152.27,282.65 154.23,282.65 154.37,280.68 				"/>
				<polygon class="st51" points="158.3,280.68 158.16,282.65 160.13,282.65 160.27,280.68 				"/>
				<polygon class="st51" points="160.27,280.68 160.13,282.65 162.09,282.65 162.23,280.68 				"/>
				<polygon class="st51" points="162.23,280.68 162.09,282.65 164.06,282.65 164.2,280.68 				"/>
				<polygon class="st51" points="164.2,280.68 164.06,282.65 166.02,282.65 166.16,280.68 				"/>
				<polygon class="st51" points="168.13,280.68 167.99,282.65 169.96,282.65 170.09,280.68 				"/>
				<polygon class="st51" points="172.06,280.68 171.92,282.65 173.89,282.65 174.02,280.68 				"/>
				<polygon class="st51" points="174.02,280.68 173.89,282.65 175.85,282.65 175.99,280.68 				"/>
				<polygon class="st51" points="177.95,280.68 177.82,282.65 179.78,282.65 179.92,280.68 				"/>
				<polygon class="st51" points="179.92,280.68 179.78,282.65 181.75,282.65 181.89,280.68 				"/>
				<polygon class="st51" points="132.61,282.65 132.47,284.61 134.44,284.61 134.58,282.65 				"/>
				<polygon class="st51" points="144.4,282.65 144.27,284.61 146.23,284.61 146.37,282.65 				"/>
				<polygon class="st51" points="148.34,282.65 148.2,284.61 150.16,284.61 150.3,282.65 				"/>
				<polygon class="st51" points="156.2,282.65 156.06,284.61 158.03,284.61 158.16,282.65 				"/>
				<polygon class="st51" points="158.16,282.65 158.03,284.61 159.99,284.61 160.13,282.65 				"/>
				<polygon class="st51" points="160.13,282.65 159.99,284.61 161.96,284.61 162.09,282.65 				"/>
				<polygon class="st51" points="164.06,282.65 163.92,284.61 165.89,284.61 166.02,282.65 				"/>
				<polygon class="st51" points="171.92,282.65 171.78,284.61 173.75,284.61 173.89,282.65 				"/>
				<polygon class="st51" points="173.89,282.65 173.75,284.61 175.71,284.61 175.85,282.65 				"/>
				<polygon class="st51" points="177.82,282.65 177.68,284.61 179.65,284.61 179.78,282.65 				"/>
				<polygon class="st51" points="132.47,284.61 132.34,286.58 134.3,286.58 134.44,284.61 				"/>
				<polygon class="st51" points="136.41,284.61 136.27,286.58 138.23,286.58 138.37,284.61 				"/>
				<polygon class="st51" points="138.37,284.61 138.23,286.58 140.2,286.58 140.34,284.61 				"/>
				<polygon class="st51" points="140.34,284.61 140.2,286.58 142.16,286.58 142.3,284.61 				"/>
				<polygon class="st51" points="144.27,284.61 144.13,286.58 146.1,286.58 146.23,284.61 				"/>
				<polygon class="st51" points="148.2,284.61 148.06,286.58 150.03,286.58 150.16,284.61 				"/>
				<polygon class="st51" points="154.09,284.61 153.96,286.58 155.92,286.58 156.06,284.61 				"/>
				<polygon class="st51" points="156.06,284.61 155.92,286.58 157.89,286.58 158.03,284.61 				"/>
				<polygon class="st51" points="158.03,284.61 157.89,286.58 159.85,286.58 159.99,284.61 				"/>
				<polygon class="st51" points="159.99,284.61 159.85,286.58 161.82,286.58 161.96,284.61 				"/>
				<polygon class="st51" points="163.92,284.61 163.78,286.58 165.75,286.58 165.89,284.61 				"/>
				<polygon class="st51" points="165.89,284.61 165.75,286.58 167.72,286.58 167.85,284.61 				"/>
				<polygon class="st51" points="167.85,284.61 167.72,286.58 169.68,286.58 169.82,284.61 				"/>
				<polygon class="st51" points="169.82,284.61 169.68,286.58 171.65,286.58 171.78,284.61 				"/>
				<polygon class="st51" points="171.78,284.61 171.65,286.58 173.61,286.58 173.75,284.61 				"/>
				<polygon class="st51" points="173.75,284.61 173.61,286.58 175.58,286.58 175.71,284.61 				"/>
				<polygon class="st51" points="177.68,284.61 177.54,286.58 179.51,286.58 179.65,284.61 				"/>
				<polygon class="st51" points="132.34,286.58 132.2,288.54 134.17,288.54 134.3,286.58 				"/>
				<polygon class="st51" points="136.27,286.58 136.13,288.54 138.1,288.54 138.23,286.58 				"/>
				<polygon class="st51" points="138.23,286.58 138.1,288.54 140.06,288.54 140.2,286.58 				"/>
				<polygon class="st51" points="140.2,286.58 140.06,288.54 142.03,288.54 142.16,286.58 				"/>
				<polygon class="st51" points="144.13,286.58 143.99,288.54 145.96,288.54 146.1,286.58 				"/>
				<polygon class="st51" points="150.03,286.58 149.89,288.54 151.85,288.54 151.99,286.58 				"/>
				<polygon class="st51" points="151.99,286.58 151.85,288.54 153.82,288.54 153.96,286.58 				"/>
				<polygon class="st51" points="155.92,286.58 155.79,288.54 157.75,288.54 157.89,286.58 				"/>
				<polygon class="st51" points="161.82,286.58 161.68,288.54 163.65,288.54 163.78,286.58 				"/>
				<polygon class="st51" points="163.78,286.58 163.65,288.54 165.61,288.54 165.75,286.58 				"/>
				<polygon class="st51" points="169.68,286.58 169.54,288.54 171.51,288.54 171.65,286.58 				"/>
				<polygon class="st51" points="171.65,286.58 171.51,288.54 173.47,288.54 173.61,286.58 				"/>
				<polygon class="st51" points="173.61,286.58 173.47,288.54 175.44,288.54 175.58,286.58 				"/>
				<polygon class="st51" points="175.58,286.58 175.44,288.54 177.4,288.54 177.54,286.58 				"/>
				<polygon class="st51" points="132.2,288.54 132.06,290.51 134.03,290.51 134.17,288.54 				"/>
				<polygon class="st51" points="136.13,288.54 135.99,290.51 137.96,290.51 138.1,288.54 				"/>
				<polygon class="st51" points="138.1,288.54 137.96,290.51 139.92,290.51 140.06,288.54 				"/>
				<polygon class="st51" points="140.06,288.54 139.92,290.51 141.89,290.51 142.03,288.54 				"/>
				<polygon class="st51" points="143.99,288.54 143.86,290.51 145.82,290.51 145.96,288.54 				"/>
				<polygon class="st51" points="147.92,288.54 147.79,290.51 149.75,290.51 149.89,288.54 				"/>
				<polygon class="st51" points="157.75,288.54 157.61,290.51 159.58,290.51 159.72,288.54 				"/>
				<polygon class="st51" points="161.68,288.54 161.54,290.51 163.51,290.51 163.65,288.54 				"/>
				<polygon class="st51" points="171.51,288.54 171.37,290.51 173.34,290.51 173.47,288.54 				"/>
				<polygon class="st51" points="179.37,288.54 179.23,290.51 181.2,290.51 181.34,288.54 				"/>
				<polygon class="st51" points="132.06,290.51 131.93,292.47 133.89,292.47 134.03,290.51 				"/>
				<polygon class="st51" points="143.86,290.51 143.72,292.47 145.68,292.47 145.82,290.51 				"/>
				<polygon class="st51" points="147.79,290.51 147.65,292.47 149.61,292.47 149.75,290.51 				"/>
				<polygon class="st51" points="149.75,290.51 149.61,292.47 151.58,292.47 151.72,290.51 				"/>
				<polygon class="st51" points="153.68,290.51 153.54,292.47 155.51,292.47 155.65,290.51 				"/>
				<polygon class="st51" points="157.61,290.51 157.48,292.47 159.44,292.47 159.58,290.51 				"/>
				<polygon class="st51" points="159.58,290.51 159.44,292.47 161.41,292.47 161.54,290.51 				"/>
				<polygon class="st51" points="161.54,290.51 161.41,292.47 163.37,292.47 163.51,290.51 				"/>
				<polygon class="st51" points="163.51,290.51 163.37,292.47 165.34,292.47 165.47,290.51 				"/>
				<polygon class="st51" points="167.44,290.51 167.3,292.47 169.27,292.47 169.41,290.51 				"/>
				<polygon class="st51" points="171.37,290.51 171.23,292.47 173.2,292.47 173.34,290.51 				"/>
				<polygon class="st51" points="173.34,290.51 173.2,292.47 175.16,292.47 175.3,290.51 				"/>
				<polygon class="st51" points="177.27,290.51 177.13,292.47 179.1,292.47 179.23,290.51 				"/>
				<polygon class="st51" points="131.93,292.47 131.79,294.44 133.75,294.44 133.89,292.47 				"/>
				<polygon class="st51" points="133.89,292.47 133.75,294.44 135.72,294.44 135.86,292.47 				"/>
				<polygon class="st51" points="135.86,292.47 135.72,294.44 137.68,294.44 137.82,292.47 				"/>
				<polygon class="st51" points="137.82,292.47 137.68,294.44 139.65,294.44 139.79,292.47 				"/>
				<polygon class="st51" points="139.79,292.47 139.65,294.44 141.61,294.44 141.75,292.47 				"/>
				<polygon class="st51" points="141.75,292.47 141.61,294.44 143.58,294.44 143.72,292.47 				"/>
				<polygon class="st51" points="143.72,292.47 143.58,294.44 145.55,294.44 145.68,292.47 				"/>
				<polygon class="st51" points="147.65,292.47 147.51,294.44 149.48,294.44 149.61,292.47 				"/>
				<polygon class="st51" points="149.61,292.47 149.48,294.44 151.44,294.44 151.58,292.47 				"/>
				<polygon class="st51" points="151.58,292.47 151.44,294.44 153.41,294.44 153.54,292.47 				"/>
				<polygon class="st51" points="153.54,292.47 153.41,294.44 155.37,294.44 155.51,292.47 				"/>
				<polygon class="st51" points="155.51,292.47 155.37,294.44 157.34,294.44 157.48,292.47 				"/>
				<polygon class="st51" points="157.48,292.47 157.34,294.44 159.3,294.44 159.44,292.47 				"/>
				<polygon class="st51" points="163.37,292.47 163.23,294.44 165.2,294.44 165.34,292.47 				"/>
				<polygon class="st51" points="165.34,292.47 165.2,294.44 167.17,294.44 167.3,292.47 				"/>
				<polygon class="st51" points="169.27,292.47 169.13,294.44 171.1,294.44 171.23,292.47 				"/>
				<polygon class="st51" points="177.13,292.47 176.99,294.44 178.96,294.44 179.1,292.47 				"/>
				<polygon class="st51" points="179.1,292.47 178.96,294.44 180.92,294.44 181.06,292.47 				"/>
			</g>
		</g>
	</g>
	<g>
		<g>
			<path class="st52" d="M422.65,76.53c-15.88,1.87-20.96-6.41-20.96-6.41s-5.05,8.3-20.94,6.48c0,0-5.69,36.15,21.02,41.86
				C428.46,112.66,422.65,76.53,422.65,76.53z"/>
			<path class="st53" d="M401.77,116.39c-9.39-2.25-15.28-9.15-17.51-20.52c-1.17-5.95-1.02-11.65-0.77-14.91
				c0.58,0.02,1.16,0.04,1.72,0.04c8.56-0.01,13.73-2.97,16.49-5.34c2.77,2.35,7.95,5.3,16.51,5.28c0.56,0,1.14-0.01,1.72-0.04
				c0.26,3.3,0.43,9.08-0.74,15.06C416.97,107.25,411.11,114.12,401.77,116.39z"/>
			<path class="st19" d="M401.77,115.32c-9.39-2.25-15.28-9.15-17.51-20.52c-1.17-5.95-1.02-11.65-0.77-14.91
				c0.58,0.02,1.16,0.04,1.72,0.04c8.56-0.01,13.73-2.97,16.49-5.34c2.77,2.35,7.95,5.3,16.51,5.28c0.56,0,1.14-0.01,1.72-0.04
				c0.26,3.3,0.43,9.08-0.74,15.06C416.97,106.17,411.11,113.04,401.77,115.32z"/>
			<path class="st53" d="M383.48,80.53c0.58,0.02,1.16,0.04,1.72,0.04c8.56-0.01,13.73-2.97,16.49-5.34
				c2.77,2.35,7.95,5.3,16.51,5.28c0.56,0,1.14-0.01,1.72-0.04c0.09,1.18,0.17,2.68,0.19,4.38c0.01-1.97-0.08-3.7-0.19-5.02
				c-0.58,0.03-1.16,0.04-1.72,0.04c-8.56,0.02-13.74-2.93-16.51-5.28c-2.76,2.36-7.93,5.32-16.49,5.34c-0.56,0-1.14-0.01-1.72-0.04
				c-0.1,1.32-0.18,3.03-0.17,5C383.32,83.19,383.39,81.7,383.48,80.53z"/>
		</g>
		<g>
			<path class="st53" d="M408.35,91.89l-0.33,0.01l-0.2-4.45c-0.14-3.24-2.89-5.75-6.13-5.61l-0.79,0.04
				c-3.23,0.14-5.75,2.89-5.6,6.13l0.17,3.75l0.03,0.69l-0.33,0.01c-0.68,0.03-1.2,0.61-1.17,1.29l0.53,12
				c0.03,0.68,0.61,1.2,1.28,1.17l9.04-0.4l4.15-0.18c0.68-0.03,1.2-0.61,1.17-1.28l-0.53-12C409.6,92.39,409.03,91.86,408.35,91.89
				z M397.01,87.94c-0.1-2.29,1.68-4.24,3.97-4.34l0.79-0.04c2.29-0.1,4.24,1.68,4.34,3.97l0.17,3.75l0,0l0.03,0.69l-9.1,0.41
				l-0.03-0.69L397.01,87.94z M403.58,99.85l0.09,2.1c0.04,0.81-0.6,1.51-1.41,1.55s-1.51-0.6-1.55-1.41l-0.09-2.1
				c-0.42-0.37-0.7-0.9-0.72-1.51c-0.05-1.18,0.86-2.18,2.04-2.23c1.18-0.05,2.18,0.86,2.23,2.04
				C404.2,98.89,403.97,99.44,403.58,99.85z"/>
			<g>
				<g>
					<path class="st16" d="M401.65,81l-0.79,0.04c-3.23,0.14-5.75,2.89-5.6,6.13l0.36,8.07l12.52-0.56l-0.36-8.07
						C407.64,83.37,404.89,80.86,401.65,81z M406.36,93.04l-9.1,0.41l-0.28-6.36c-0.1-2.29,1.68-4.24,3.97-4.34l0.79-0.04
						c2.29-0.1,4.24,1.68,4.34,3.97L406.36,93.04z"/>
				</g>
				<path class="st16" d="M408.31,91.04l-13.19,0.59c-0.68,0.03-1.2,0.61-1.17,1.29l0.53,12c0.03,0.68,0.61,1.2,1.28,1.17
					l13.19-0.59c0.68-0.03,1.2-0.61,1.17-1.28l-0.53-12C409.57,91.54,408.99,91.01,408.31,91.04z M403.54,98.99l0.09,2.1
					c0.04,0.81-0.6,1.51-1.41,1.55s-1.51-0.6-1.55-1.41l-0.09-2.1c-0.42-0.37-0.7-0.9-0.72-1.51c-0.05-1.18,0.86-2.18,2.04-2.23
					c1.18-0.05,2.18,0.86,2.23,2.04C404.16,98.03,403.93,98.58,403.54,98.99z"/>
				
					<rect x="395.44" y="90.88" transform="matrix(0.999 -0.0445 0.0445 0.999 -3.6669 17.7255)" class="st53" width="1.71" height="0.69"/>
				
					<rect x="406.24" y="90.42" transform="matrix(0.999 -0.0445 0.0445 0.999 -3.6357 18.2059)" class="st53" width="1.71" height="0.69"/>
				<path class="st53" d="M409.6,92.21l0.53,12c0.03,0.68-0.5,1.25-1.17,1.28l-4.15,0.18c0.26-0.47,0.62-0.89,0.96-1.32
					c1.76-2.28,2.73-5.24,2.36-8.1c-0.11-0.84-0.34-1.69-0.84-2.37c-1.09-1.47-3.14-1.8-4.97-1.8c-0.55,0-3.76,0.07-5.21-0.55
					l11.21-0.5C408.99,91.01,409.57,91.54,409.6,92.21z"/>
			</g>
		</g>
	</g>
	<g class="st0">
		<g class="st28">
			<polygon class="st16" points="121.43,-2.32 187.23,-6.17 132.25,6.25 			"/>
			<polygon class="st54" points="132.25,6.25 137.44,26.22 187.23,-6.17 			"/>
			<polygon class="st55" points="138.71,11.51 137.44,26.22 152.56,16.38 			"/>
			<polygon class="st16" points="138.71,11.51 187.23,-6.17 157.73,25.89 			"/>
		</g>
		<g class="st28">
			<g>
				<path class="st56" d="M135.6,29.07c-0.36,0.56-0.73,1.12-1.09,1.68"/>
				<path class="st57" d="M132.35,33.94c-2.57,3.7-5.3,7.29-8.25,10.66"/>
				<path class="st58" d="M122.81,46.04c-2.98,3.27-6.19,6.31-9.68,9.04c-9.08,7.08-20.28,11.86-31.79,11.73
					c-2.8-0.03-5.7-0.38-8.12-1.79c-6.43-3.73-6.59-13.9-1.57-19.38c5.02-5.48,13.29-6.84,20.63-5.68c2,0.31,4.02,0.8,5.77,1.83
					c6.03,3.53,6.93,11.97,5.47,18.79c-2.77,13-11.34,24.11-21.33,32.88s-21.49,15.61-32.3,23.35c-9.8,7.02-19.04,14.79-28.27,22.56
					c-5.38,4.53-10.8,9.09-15.19,14.58c-4.05,5.05-7.14,10.8-10.22,16.52c-2.34,4.35-4.68,8.7-7.02,13.05"/>
				<path class="st56" d="M-11.73,185.22c-0.32,0.59-0.63,1.17-0.95,1.76"/>
			</g>
		</g>
	</g>
	<g>
		<path class="st59" d="M82.95,146.74c0.7-0.65,1.79-0.6,2.42,0.12l3.4,3.88c0.01-0.03,0.03-0.06,0.03-0.09
			c0.18-0.6,0.19-1.21,0.04-1.74c-0.1-0.35-0.27-0.67-0.51-0.94l-5.3-6.04c-0.24-0.28-0.53-0.48-0.86-0.62s-0.7-0.21-1.09-0.2
			c-0.78,0.01-1.63,0.34-2.33,0.99c-0.53,0.49-0.88,1.08-1.07,1.69c-0.18,0.6-0.19,1.21-0.04,1.74c0.1,0.35,0.27,0.67,0.51,0.94
			l5.3,6.04c0.24,0.28,0.53,0.48,0.86,0.62s0.7,0.21,1.09,0.2c0.23,0,0.46-0.04,0.69-0.09l-3.41-3.88c-0.63-0.72-0.58-1.84,0.13-2.5
			L82.95,146.74z"/>
		<path class="st59" d="M94.27,159.91c-0.7,0.66-1.79,0.6-2.42-0.12l-2.59-2.95c-0.01,0.03-0.03,0.06-0.04,0.09
			c-0.18,0.6-0.19,1.21-0.04,1.74c0.1,0.35,0.27,0.67,0.51,0.94l5.3,6.04c0.24,0.28,0.53,0.48,0.86,0.62s0.7,0.21,1.09,0.2
			c0.78-0.01,1.63-0.34,2.33-0.99c0.53-0.49,0.88-1.08,1.07-1.69c0.18-0.6,0.19-1.21,0.04-1.74c-0.1-0.35-0.27-0.67-0.51-0.94
			l-5.3-6.04c-0.24-0.28-0.53-0.48-0.86-0.62s-0.7-0.21-1.09-0.2c-0.23,0-0.46,0.04-0.69,0.09l2.59,2.95
			c0.63,0.72,0.58,1.84-0.13,2.5L94.27,159.91z"/>
		<path class="st19" d="M88.78,150.74l0.23,0.27l0,0l1.24,1.41c0.38-0.67,0.62-1.4,0.7-2.13c0.08-0.66,0.03-1.33-0.15-1.97
			s-0.5-1.24-0.95-1.76l-5.3-6.04c-0.45-0.52-1.01-0.9-1.6-1.15c-0.9-0.37-1.89-0.44-2.85-0.24s-1.9,0.68-2.7,1.42
			c-1.06,0.99-1.7,2.28-1.85,3.6c-0.08,0.66-0.03,1.33,0.15,1.97s0.5,1.24,0.95,1.76l5.3,6.04c0.45,0.52,1.01,0.9,1.6,1.15
			c0.9,0.37,1.89,0.44,2.85,0.24c0.4-0.08,0.79-0.22,1.17-0.39l-1.24-1.41l0,0l-0.23-0.27c-0.23,0.06-0.46,0.09-0.69,0.09
			c-0.39,0.01-0.76-0.06-1.09-0.2c-0.33-0.14-0.62-0.34-0.86-0.62l-5.3-6.04c-0.24-0.28-0.41-0.59-0.51-0.94
			c-0.15-0.52-0.14-1.13,0.04-1.74c0.18-0.6,0.54-1.2,1.07-1.69c0.7-0.66,1.55-0.98,2.33-0.99c0.39-0.01,0.76,0.06,1.09,0.2
			c0.33,0.14,0.62,0.34,0.86,0.62l5.3,6.04c0.24,0.28,0.41,0.59,0.51,0.94c0.15,0.53,0.14,1.13-0.04,1.74
			C88.8,150.68,88.79,150.71,88.78,150.74z"/>
		<path class="st19" d="M89.26,156.84l-1.47-1.68c-0.38,0.67-0.62,1.4-0.7,2.13c-0.08,0.66-0.03,1.33,0.15,1.97s0.5,1.24,0.95,1.76
			l5.3,6.04c0.45,0.52,1.01,0.9,1.6,1.15c0.9,0.37,1.89,0.44,2.85,0.24s1.9-0.68,2.7-1.42c1.06-0.99,1.7-2.28,1.85-3.6
			c0.08-0.66,0.03-1.33-0.15-1.96c-0.18-0.64-0.5-1.24-0.95-1.76l-5.3-6.04c-0.45-0.52-1.01-0.9-1.6-1.15
			c-0.9-0.37-1.89-0.44-2.85-0.24c-0.4,0.08-0.79,0.22-1.17,0.39l1.47,1.68c0.23-0.06,0.46-0.09,0.69-0.09
			c0.39-0.01,0.76,0.06,1.09,0.2c0.33,0.14,0.62,0.34,0.86,0.62l5.3,6.04c0.24,0.28,0.41,0.59,0.51,0.94
			c0.15,0.52,0.14,1.13-0.04,1.74c-0.18,0.6-0.54,1.2-1.07,1.69c-0.7,0.66-1.55,0.98-2.33,0.99c-0.39,0.01-0.76-0.06-1.09-0.2
			c-0.33-0.14-0.62-0.34-0.86-0.62l-5.3-6.04c-0.24-0.28-0.41-0.59-0.51-0.94c-0.15-0.52-0.14-1.13,0.04-1.74
			C89.24,156.9,89.25,156.87,89.26,156.84z"/>
		<path class="st60" d="M90.46,152.66l-0.21-0.24l-1.24-1.41l0,0l-0.23-0.27l-3.4-3.88c-0.63-0.72-1.72-0.78-2.42-0.12l-0.13,0.12
			c-0.7,0.66-0.76,1.77-0.13,2.5l3.41,3.88l0.23,0.27l0,0l1.24,1.41l0.21,0.24l1.47,1.68l2.59,2.95c0.63,0.72,1.72,0.78,2.42,0.12
			l0.13-0.12c0.7-0.66,0.76-1.77,0.13-2.5l-2.59-2.95L90.46,152.66z"/>
	</g>
	<g>
		<g>
			<ellipse class="st19" cx="42.65" cy="99.26" rx="26.96" ry="26.96"/>
			<g>
				<g>
					<defs>
						<circle id="SVGID_3_" cx="42.65" cy="99.26" r="26.96"/>
					</defs>
					<clipPath id="SVGID_4_">
						<use xlink:href="#SVGID_3_"  style="overflow:visible;"/>
					</clipPath>
					<g class="st61">
						<path class="st62" d="M43.18,81.13c-6.68,0-12.1,5.42-12.1,12.1v19.82h24.19V93.23C55.28,86.54,49.86,81.13,43.18,81.13z"/>
						<path class="st63" d="M44.82,106.47h-3.11c-5.78,0-10.46,4.68-10.46,10.46v10.32h24.03v-10.32
							C55.28,111.15,50.6,106.47,44.82,106.47z"/>
						<path class="st64" d="M39.59,100.1v8.06c0,2.03,1.65,3.68,3.68,3.68s3.68-1.65,3.68-3.68v-8.06H39.59z"/>
						<path class="st64" d="M46.03,84.63c-1.99,3.26-7.49,11.56-11.97,11.84c0,5.06,4.14,9.2,9.2,9.2s9.2-4.14,9.2-9.2v-1.83
							C48.73,91.12,46.9,87.24,46.03,84.63z"/>
						<path class="st19" d="M40.14,98.72c0.14,1.6,1.47,2.85,3.1,2.85c1.63,0,2.97-1.25,3.1-2.85H40.14z"/>
					</g>
				</g>
			</g>
		</g>
		<g>
			<path class="st27" d="M63.13,43.76c0-11.31-9.17-20.47-20.47-20.47c-11.31,0-20.47,9.17-20.47,20.47
				c0,10.11,7.33,18.48,16.96,20.15l3.98,6.89l4.09-7.09C56.32,61.63,63.13,53.5,63.13,43.76z"/>
			<path class="st47" d="M58.54,196.9c0-1.41-1.15-2.56-2.56-2.56h-2.24c0,0-2.37,0-5.17,0c-3.96,0-8.8,0-9.05,0
				c-0.24,0,0.52-1.17,1.26-2.24c0.89-1.28,1.36-2.8,1.31-4.36c-0.04-1.61-0.29-3.64-1.12-5.22c-0.9-1.72-2.54-2.15-3.81-2.2
				c-0.93-0.03-1.65,0.81-1.54,1.73l0.57,4.55c0.16,1.26-0.37,2.52-1.39,3.28l-1.37,1.02c-1.07,0.8-1.84,1.95-2.17,3.24v0.02
				c-0.29,1.13-1.31,1.92-2.48,1.92h-5.16l0.58,15.46h6.42l2.19,2.33h13.43h2.54h1.11c1.15,0,2.09-0.94,2.09-2.09
				s-0.94-2.09-2.09-2.09h2.35c1.41,0,2.56-1.15,2.56-2.56s-1.15-2.56-2.56-2.56h2.16c1.41,0,2.56-1.15,2.56-2.56
				s-1.15-2.56-2.56-2.56h1.58C57.39,199.46,58.54,198.31,58.54,196.9z"/>
		</g>
	</g>
	<g class="st0">
		<g class="st28">
			<path class="st14" d="M69.97,350.35c0,1.06-0.83,2.08-2.33,2.99c-4.05,2.46-12.96,4.17-23.3,4.17c-14.15,0-25.62-3.2-25.62-7.16
				c0-2.06,3.12-3.92,8.11-5.22c4.58-1.2,10.75-1.93,17.51-1.93c5.59,0,10.77,0.5,14.98,1.35c3.88,0.78,6.96,1.87,8.78,3.12
				C69.31,348.49,69.97,349.39,69.97,350.35z"/>
			<rect x="18.72" y="336.03" class="st14" width="51.25" height="14.32"/>
			<path class="st53" d="M69.97,336.03v14.32c0,1.06-0.83,2.08-2.33,2.99c0.12-0.98,0.26-2.26,0.33-2.99
				c0.04-0.31,0.06-0.52,0.06-0.55c0.1-0.69,0.13-1.43,0.06-2.14c-0.12-1.19-0.55-2.3-1.48-3.01c-1.4-1.07-3.37-0.78-5.1-0.48
				c-0.73,0.13-1.47,0.25-2.2,0.37c-6.36,1.01-12.8,1.57-19.23,1.67c-4.37,0.07-8.94-0.09-13.26-1.09c-2.6-0.61-5.12-1.51-7.46-2.85
				c-0.22-0.13-0.44-0.26-0.65-0.39v-5.86h51.26V336.03z"/>
			<ellipse class="st65" cx="44.35" cy="336.03" rx="25.62" ry="7.16"/>
			<ellipse class="st8" cx="44.35" cy="336.03" rx="18.86" ry="5.27"/>
		</g>
		<g class="st28">
			<path class="st14" d="M69.97,330.43c0,1.06-0.83,2.08-2.33,2.99c-4.05,2.46-12.96,4.17-23.3,4.17c-14.15,0-25.62-3.2-25.62-7.16
				c0-2.06,3.12-3.92,8.11-5.22c4.58-1.2,10.75-1.93,17.51-1.93c5.59,0,10.77,0.5,14.98,1.35c3.88,0.78,6.96,1.87,8.78,3.12
				C69.31,328.58,69.97,329.48,69.97,330.43z"/>
			<rect x="18.72" y="316.12" class="st14" width="51.25" height="14.32"/>
			<path class="st53" d="M69.97,316.12v14.32c0,1.06-0.83,2.08-2.33,2.99c0.12-0.98,0.26-2.26,0.33-2.99
				c0.04-0.31,0.06-0.52,0.06-0.55c0.1-0.69,0.13-1.43,0.06-2.14c-0.12-1.19-0.55-2.3-1.48-3.01c-1.4-1.07-3.37-0.78-5.1-0.48
				c-0.73,0.13-1.47,0.25-2.2,0.37c-6.36,1.01-12.8,1.57-19.23,1.67c-4.37,0.07-8.94-0.09-13.26-1.09c-2.6-0.61-5.12-1.51-7.46-2.85
				c-0.22-0.13-0.44-0.26-0.65-0.39v-5.86h51.26V316.12z"/>
			<ellipse class="st65" cx="44.35" cy="316.12" rx="25.62" ry="7.16"/>
			<ellipse class="st8" cx="44.35" cy="316.12" rx="18.86" ry="5.27"/>
		</g>
		<g class="st28">
			<path class="st14" d="M69.97,310.99c0,1.06-0.83,2.08-2.33,2.99c-4.05,2.46-12.96,4.17-23.3,4.17c-14.15,0-25.62-3.2-25.62-7.16
				c0-2.06,3.12-3.92,8.11-5.22c4.58-1.2,10.75-1.93,17.51-1.93c5.59,0,10.77,0.5,14.98,1.35c3.88,0.78,6.96,1.87,8.78,3.12
				C69.31,309.14,69.97,310.04,69.97,310.99z"/>
			<rect x="18.72" y="296.68" class="st14" width="51.25" height="14.32"/>
			<path class="st53" d="M69.97,296.68V311c0,1.06-0.83,2.08-2.33,2.99c0.12-0.98,0.26-2.26,0.33-2.99
				c0.04-0.31,0.06-0.52,0.06-0.55c0.1-0.69,0.13-1.43,0.06-2.14c-0.12-1.19-0.55-2.3-1.48-3.01c-1.4-1.07-3.37-0.78-5.1-0.48
				c-0.73,0.13-1.47,0.25-2.2,0.37c-6.36,1.01-12.8,1.57-19.23,1.67c-4.37,0.07-8.94-0.09-13.26-1.09c-2.6-0.61-5.12-1.51-7.46-2.85
				c-0.22-0.13-0.44-0.26-0.65-0.39v-5.86h51.26V296.68z"/>
			<ellipse class="st65" cx="44.35" cy="296.68" rx="25.62" ry="7.16"/>
			<ellipse class="st8" cx="44.35" cy="296.68" rx="18.86" ry="5.27"/>
		</g>
		<g class="st28">
			<path class="st65" d="M24.86,309.76c0,0.6-0.49,1.09-1.09,1.09s-1.09-0.49-1.09-1.09s0.49-1.09,1.09-1.09
				C24.37,308.68,24.86,309.17,24.86,309.76z"/>
			<circle class="st16" cx="27.3" cy="310.9" r="1.51"/>
			<path class="st65" d="M33.01,311.74c0,0.89-0.72,1.61-1.61,1.61s-1.61-0.72-1.61-1.61c0-0.89,0.72-1.61,1.61-1.61
				C32.29,310.13,33.01,310.85,33.01,311.74z"/>
		</g>
		<g class="st28">
			<path class="st65" d="M24.86,329.51c0,0.6-0.49,1.09-1.09,1.09s-1.09-0.49-1.09-1.09s0.49-1.09,1.09-1.09
				S24.86,328.91,24.86,329.51z"/>
			<circle class="st16" cx="27.3" cy="330.65" r="1.51"/>
			<path class="st65" d="M33.01,331.49c0,0.89-0.72,1.61-1.61,1.61s-1.61-0.72-1.61-1.61c0-0.89,0.72-1.61,1.61-1.61
				C32.29,329.87,33.01,330.6,33.01,331.49z"/>
		</g>
		<g class="st28">
			<path class="st65" d="M24.86,349.09c0,0.6-0.49,1.09-1.09,1.09s-1.09-0.49-1.09-1.09s0.49-1.09,1.09-1.09
				C24.37,348.01,24.86,348.49,24.86,349.09z"/>
			<path class="st16" d="M28.81,350.23c0,0.83-0.68,1.51-1.51,1.51s-1.51-0.68-1.51-1.51c0-0.83,0.68-1.51,1.51-1.51
				S28.81,349.39,28.81,350.23z"/>
			<path class="st65" d="M33.01,351.07c0,0.89-0.72,1.61-1.61,1.61s-1.61-0.72-1.61-1.61c0-0.89,0.72-1.61,1.61-1.61
				C32.29,349.46,33.01,350.18,33.01,351.07z"/>
		</g>
	</g>
</g>
<g id="DESIGNED_BY_FREEPIK">
</g>
</svg>
